<?xml version="1.0" standalone="no"?>
<!DOCTYPE svg PUBLIC "-//W3C//DTD SVG 20010904//EN"
 "http://www.w3.org/TR/2001/REC-SVG-20010904/DTD/svg10.dtd">
<svg version="1.0" xmlns="http://www.w3.org/2000/svg"
 width="900.000000pt" height="900.000000pt" viewBox="0 0 900.000000 900.000000"
 preserveAspectRatio="xMidYMid meet">
<metadata>
Created by potrace 1.10, written by Peter Selinger 2001-2011
</metadata>
<g transform="translate(0.000000,900.000000) scale(0.100000,-0.100000)"
fill="#000000" stroke="none">
<path d="M0 4500 l0 -4500 4500 0 4500 0 0 4500 0 4500 -4500 0 -4500 0 0
-4500z m4277 3208 c7 -6 13 -16 13 -22 0 -10 36 -89 76 -168 23 -43 18 -77
-12 -90 -24 -11 -29 -10 -54 20 -21 25 -34 32 -63 32 -29 0 -37 -4 -37 -18 0
-28 -21 -42 -61 -42 -45 0 -56 20 -34 63 8 16 15 42 15 56 0 14 7 39 15 55 8
15 15 39 15 53 0 68 75 104 127 61z m536 -20 c9 -11 17 -28 17 -37 0 -9 7 -25
15 -35 8 -11 15 -29 15 -40 0 -17 2 -18 10 -6 5 8 10 28 10 43 0 45 27 87 55
87 41 0 50 -34 35 -132 -6 -46 -14 -100 -17 -120 -6 -47 -21 -59 -64 -52 -24
5 -40 16 -56 41 -13 19 -23 41 -23 49 0 21 -19 54 -30 54 -5 0 -10 -23 -12
-51 -4 -61 -22 -79 -65 -63 -22 8 -27 16 -26 34 18 191 24 224 39 241 20 23
71 16 97 -13z m-1063 -57 c19 -37 12 -50 -35 -62 -24 -6 -50 -18 -57 -26 -10
-12 -3 -14 48 -11 58 3 59 2 62 -24 4 -30 -12 -42 -71 -53 -59 -11 -32 -26 41
-23 l67 3 3 -33 c2 -20 -2 -34 -10 -36 -7 -2 -37 -11 -67 -20 -64 -19 -115
-21 -129 -3 -6 7 -14 33 -18 57 -3 25 -12 64 -20 88 -8 23 -14 60 -14 82 0 35
3 40 28 46 15 4 50 12 77 20 69 18 83 17 95 -5z m1638 -38 c19 -16 20 -23 12
-68 -6 -27 -14 -59 -19 -70 -5 -11 -12 -36 -15 -55 -3 -19 -15 -50 -26 -67
-19 -33 -35 -35 -67 -10 -18 13 -16 76 2 111 8 15 15 40 15 55 0 15 6 35 14
46 7 11 16 32 20 48 8 32 33 36 64 10z m418 -143 c28 -18 34 -28 39 -75 4 -30
5 -65 2 -77 -4 -13 -2 -30 3 -38 7 -11 10 -7 16 16 4 16 10 34 14 39 4 6 10
22 14 38 5 23 12 27 40 27 48 0 58 -17 41 -68 -8 -23 -19 -50 -24 -60 -5 -9
-20 -42 -35 -72 -40 -86 -66 -110 -80 -75 -3 8 -12 15 -20 15 -30 0 -46 42
-47 120 0 41 -3 68 -6 60 -3 -8 -11 -28 -18 -45 -8 -16 -16 -40 -20 -52 -7
-25 -42 -31 -76 -13 -23 13 -24 27 -5 66 37 78 66 142 66 148 0 12 43 66 53
66 5 0 24 -9 43 -20z m-2678 -23 c6 -6 14 -26 18 -42 4 -17 13 -39 20 -50 8
-11 14 -27 14 -36 0 -9 7 -22 15 -29 11 -9 19 -8 37 4 35 25 76 21 90 -9 12
-27 -2 -55 -27 -55 -8 0 -28 -8 -47 -17 -62 -31 -68 -33 -88 -33 -11 0 -22 6
-24 13 -7 21 -15 41 -25 57 -40 68 -72 186 -54 203 11 12 60 8 71 -6z m-387
-237 c25 -14 24 -35 -2 -61 -16 -16 -27 -19 -51 -14 -46 11 -78 -11 -78 -52 0
-46 26 -73 72 -73 47 0 68 21 68 70 0 43 21 57 66 46 20 -5 24 -12 24 -46 0
-22 -6 -50 -12 -63 -22 -39 -71 -87 -89 -87 -10 0 -21 -4 -24 -10 -11 -17 -63
-11 -104 13 -64 36 -84 70 -85 141 -1 66 16 99 64 130 29 18 121 21 151 6z
m3640 -60 c8 0 34 -16 57 -35 33 -29 42 -44 48 -82 6 -41 4 -49 -16 -65 -12
-10 -17 -18 -11 -18 6 0 14 -7 17 -15 8 -19 -64 -132 -89 -140 -20 -7 -47 10
-47 30 0 7 -15 16 -34 19 -19 4 -53 24 -77 44 -41 37 -42 40 -42 99 1 45 7 69
24 96 26 39 101 79 134 72 11 -3 27 -5 36 -5z m-4447 -635 c15 -8 36 -15 45
-15 9 0 25 -6 36 -14 11 -7 37 -16 58 -20 27 -5 41 -14 49 -32 11 -23 9 -28
-18 -49 -20 -16 -34 -20 -45 -15 -11 6 -25 1 -48 -20 -31 -29 -31 -30 -15 -55
16 -25 16 -27 -11 -55 l-29 -30 -28 27 c-15 15 -28 31 -28 36 0 5 -13 29 -30
54 -16 24 -30 48 -30 52 0 5 -6 14 -14 20 -8 7 -19 25 -25 41 -8 26 -6 34 15
60 29 34 70 40 118 15z m5186 -71 c50 -22 80 -69 80 -126 0 -54 -16 -73 -52
-59 -22 8 -24 7 -21 -17 2 -15 -5 -41 -16 -59 -19 -31 -25 -33 -74 -33 -48 0
-58 4 -87 34 -46 47 -63 106 -44 152 26 62 84 36 84 -38 0 -41 13 -68 32 -68
13 0 9 34 -8 58 -10 15 -14 40 -12 79 3 55 5 59 38 75 42 22 35 21 80 2z
m-5496 -390 c13 -8 27 -26 30 -39 9 -34 42 -51 71 -35 57 30 87 -23 41 -73
-21 -22 -34 -27 -76 -27 -58 0 -69 -20 -22 -42 34 -16 40 -51 13 -79 l-20 -22
-63 32 c-153 78 -178 95 -178 117 0 12 7 27 15 34 8 7 15 18 15 24 0 19 58 99
82 113 31 17 64 16 92 -3z m5863 -172 l36 -73 -21 -21 c-26 -27 -43 -20 -67
28 -23 44 -36 57 -48 45 -4 -4 0 -21 9 -37 24 -41 13 -84 -21 -84 -19 0 -29 9
-42 37 -10 20 -24 38 -30 41 -16 5 -17 -30 -2 -45 17 -17 28 -80 16 -92 -26
-26 -77 -5 -77 32 0 14 -5 18 -18 15 -15 -4 -17 0 -14 27 2 20 -2 36 -12 44
-25 21 -19 55 14 79 16 12 36 22 43 22 8 0 20 7 27 15 7 8 20 15 30 15 10 0
23 7 30 15 7 8 20 15 30 15 10 0 23 7 30 15 11 14 15 14 32 -2 11 -10 36 -51
55 -91z m-1631 -37 c54 -27 77 -60 82 -119 4 -44 0 -62 -18 -91 -21 -35 -86
-75 -121 -75 -33 0 -87 30 -118 65 -97 111 42 287 175 220z m-301 -187 c23
-27 26 -39 22 -74 -6 -54 -37 -85 -93 -92 -38 -4 -47 -1 -74 26 -25 25 -30 38
-30 77 0 65 31 95 99 95 43 0 53 -4 76 -32z m-565 -114 c19 -9 37 -20 40 -23
3 -3 22 -22 43 -40 29 -27 40 -32 49 -23 29 29 145 1 196 -48 33 -31 72 -96
72 -119 0 -17 26 -41 44 -41 2 0 15 20 27 45 50 101 166 142 261 94 80 -41
123 -111 115 -192 -2 -26 -1 -49 3 -52 8 -5 6 -153 -3 -162 -4 -3 -24 -7 -45
-7 l-37 -1 -3 -47 c-4 -58 -22 -64 -22 -9 0 78 58 71 -626 71 l-614 0 0 -74
c0 -41 4 -77 9 -80 5 -4 12 -24 16 -46 4 -22 17 -59 30 -83 13 -23 31 -56 40
-74 9 -17 25 -39 36 -49 10 -9 19 -21 19 -26 0 -11 38 -46 96 -90 24 -18 44
-37 44 -41 1 -30 -182 133 -195 173 -3 11 -10 20 -15 20 -10 0 -50 76 -50 96
0 8 -7 22 -15 30 -8 9 -15 30 -15 48 0 19 -7 39 -15 46 -10 9 -15 32 -15 77 0
70 -12 84 -55 65 -32 -15 -36 -6 -38 79 0 52 3 73 14 79 9 6 15 28 15 62 2 64
26 110 78 152 31 26 48 31 94 33 55 1 58 3 78 39 30 54 78 100 126 123 53 25
164 23 218 -5z m-3540 -59 c39 -28 70 -85 70 -126 0 -43 -29 -101 -69 -137
-34 -31 -40 -33 -97 -30 -36 2 -68 10 -76 18 -9 8 -25 22 -37 30 -28 20 -44
81 -36 141 5 39 15 57 47 89 38 38 43 40 102 40 51 0 68 -5 96 -25z m6238 -84
c30 -94 29 -133 -5 -171 -33 -36 -103 -54 -103 -26 0 37 -50 5 -64 -41 -14
-46 -52 -39 -79 14 -20 40 -17 47 48 105 38 34 25 54 -23 36 -46 -18 -67 -2
-67 48 0 37 2 39 40 48 22 4 52 14 67 22 14 8 37 14 50 14 12 0 30 5 38 10 8
5 29 10 45 10 29 0 31 -4 53 -69z m-6525 -536 c43 -46 43 -46 72 -31 17 9 35
16 42 16 6 0 24 8 41 17 36 21 62 12 62 -22 0 -41 -17 -63 -68 -86 l-47 -22
40 -6 c22 -4 46 -10 53 -14 19 -12 14 -52 -8 -72 -18 -16 -26 -17 -71 -7 -28
7 -76 12 -107 12 -73 0 -100 8 -107 30 -9 28 12 69 40 76 30 7 31 15 5 39 -23
20 -28 83 -8 103 16 16 12 18 61 -33z m6658 -12 c13 -34 2 -45 -87 -88 -40
-20 -63 -36 -54 -38 8 -3 35 -10 60 -17 97 -25 95 -24 98 -56 4 -42 -17 -59
-60 -46 -18 6 -58 15 -88 22 -30 6 -66 13 -80 16 -14 3 -35 7 -46 10 -16 3
-24 14 -28 39 -11 59 -1 72 92 116 48 23 98 47 112 55 41 22 69 18 81 -13z
m-2103 -70 c-3 -42 -28 -59 -28 -20 0 32 9 57 22 57 5 0 8 -17 6 -37z m-1830
-55 l-3 -83 -222 -1 -222 0 -4 30 c-4 25 -2 122 2 134 1 1 102 2 226 2 l226 0
-3 -82z m1802 -17 c0 -10 -7 -24 -15 -31 -8 -7 -15 -18 -15 -25 0 -10 -9 -24
-50 -72 -5 -7 -10 -15 -10 -19 0 -20 -150 -144 -174 -144 -12 1 54 59 66 60 8
0 78 68 78 75 0 3 8 14 18 24 31 35 39 47 46 69 4 12 11 22 16 22 5 0 11 14
15 30 7 33 25 41 25 11z m-1724 -261 l314 0 0 -142 c0 -142 7 -177 30 -163 6
4 88 4 181 0 l170 -7 32 -33 c53 -54 57 -62 57 -120 0 -31 -6 -63 -12 -71 -17
-19 -52 -55 -75 -74 -28 -24 -241 -32 -904 -34 l-606 -1 -26 30 c-15 17 -39
55 -54 85 -28 55 -28 56 -31 292 l-3 238 278 3 c153 2 291 2 307 0 16 -2 170
-3 342 -3z m869 -44 c11 -7 34 -18 50 -24 20 -7 24 -11 11 -11 -24 -1 -96 30
-96 41 0 12 13 10 35 -6z m575 5 c0 -5 -10 -13 -22 -17 -13 -4 -25 -11 -28
-15 -4 -5 -20 -12 -38 -15 -42 -8 -43 12 -1 21 17 4 42 13 57 21 32 17 32 17
32 5z m-140 -62 c0 -7 -120 -17 -185 -17 -59 0 -145 10 -141 16 5 9 326 9 326
1z m2542 -75 c41 -7 57 -39 37 -76 -11 -20 -16 -21 -135 -15 -67 3 -132 11
-143 17 -24 12 -29 65 -8 73 17 8 205 8 249 1z m-2300 -291 c-95 -2 -248 -2
-340 0 -92 1 -14 3 173 3 187 0 262 -2 167 -3z m-4137 -44 c11 -17 8 -79 -5
-94 -7 -8 -10 -21 -7 -29 4 -10 -3 -13 -26 -12 -22 1 -32 -4 -35 -16 -3 -14 6
-17 50 -20 52 -3 53 -4 56 -35 3 -27 -2 -34 -28 -48 -31 -16 -135 -34 -214
-38 -38 -2 -39 -2 -52 48 -16 62 -18 136 -3 169 6 13 27 32 46 43 32 17 35 17
64 0 46 -26 73 -22 86 13 8 22 18 30 37 30 13 0 28 -5 31 -11z m6359 -98 c45
-30 66 -70 66 -127 0 -45 -5 -57 -35 -92 -55 -63 -125 -69 -125 -12 0 24 8 34
40 52 50 29 54 64 10 96 -48 36 -91 24 -124 -35 -7 -13 22 -73 35 -73 16 0 18
-35 4 -56 -27 -41 -56 -29 -107 46 -36 51 -11 152 48 199 36 29 146 30 188 2z
m-6231 -465 c10 -8 17 -27 17 -46 0 -21 8 -43 21 -56 16 -17 22 -37 23 -79 1
-50 -2 -58 -29 -80 -24 -21 -37 -24 -70 -20 -22 3 -55 1 -72 -4 -21 -6 -46 -6
-68 0 -30 8 -40 19 -55 55 -18 42 -18 47 -3 78 21 46 94 77 105 45 2 -6 13 -9
23 -6 19 5 19 5 -2 12 -21 7 -39 48 -28 65 4 6 24 10 45 10 30 0 40 5 45 20 7
23 23 25 48 6z m5977 -101 c48 -24 95 -42 127 -49 37 -8 49 -40 28 -73 -8 -12
-15 -27 -15 -34 0 -6 -6 -25 -14 -42 -8 -18 -16 -40 -20 -49 -8 -25 -42 -22
-60 3 -13 19 -13 26 -2 48 25 49 29 71 11 71 -9 0 -24 -18 -35 -45 -14 -32
-25 -45 -39 -45 -33 0 -44 33 -26 77 10 23 12 40 6 46 -14 14 -29 1 -36 -32
-9 -41 -38 -65 -70 -57 -18 5 -25 13 -25 31 0 13 5 27 10 30 6 3 10 12 10 19
0 8 11 39 25 70 l25 57 38 -7 c20 -4 48 -12 62 -19z m-5738 -485 c-14 -25 -14
-29 5 -61 13 -22 26 -33 39 -32 35 4 64 -18 64 -49 0 -16 -6 -30 -12 -32 -68
-18 -165 -37 -219 -42 l-66 -6 -17 32 c-9 18 -16 39 -16 46 0 15 92 128 153
188 l40 40 22 -28 c21 -27 22 -30 7 -56z m5509 8 c1 -7 2 -22 3 -33 1 -16 7
-19 41 -17 66 5 93 -36 87 -135 -3 -56 -96 -109 -137 -79 -18 13 -19 18 -8 45
6 17 7 31 2 31 -5 0 -9 -4 -9 -10 0 -5 -15 -16 -34 -25 -31 -15 -37 -15 -63
-2 -82 44 -83 121 -4 206 24 26 37 31 75 31 29 0 47 -5 47 -12z m-2644 -430
c42 -18 73 -49 73 -72 0 -12 9 -27 20 -34 17 -10 20 -23 20 -76 0 -39 -5 -67
-12 -73 -7 -5 -54 -10 -104 -11 -78 -1 -95 1 -117 18 -87 69 -69 201 32 247
34 15 54 15 88 1z m-700 -30 c24 -22 31 -72 13 -83 -7 -4 -7 -12 0 -25 20 -37
12 -77 -21 -104 -27 -23 -40 -26 -102 -26 -123 0 -117 -6 -117 126 0 141 3
145 123 138 65 -3 85 -8 104 -26z m296 -5 c33 -32 36 -76 7 -100 -25 -22 -25
-38 -1 -55 26 -18 35 -53 17 -67 -8 -7 -32 -11 -53 -9 -33 3 -41 8 -63 48
l-25 45 -3 -42 c-3 -36 -7 -44 -28 -49 -13 -3 -35 -4 -48 0 -21 5 -24 12 -29
86 -7 110 1 159 27 171 12 5 55 6 96 3 63 -4 79 -9 103 -31z m651 28 c18 -8
25 -19 28 -43 2 -25 8 -34 25 -36 19 -3 22 2 25 34 4 46 26 62 65 48 l28 -9 3
-117 c2 -110 1 -118 -18 -128 -12 -6 -33 -10 -48 -8 -24 3 -27 8 -30 46 -3 37
-6 42 -28 42 -21 0 -24 -5 -24 -35 0 -37 -20 -55 -62 -55 -42 0 -48 17 -48
131 0 134 14 156 84 130z m447 -13 c18 -27 -8 -68 -43 -68 -16 0 -18 -11 -18
-80 0 -86 -9 -100 -65 -100 -31 0 -33 5 -39 100 -4 74 -5 75 -33 78 -32 4 -43
17 -43 50 0 14 8 26 23 32 33 13 209 4 218 -12z m-926 -118 l0 -125 -27 -3
c-15 -2 -36 2 -48 8 -18 10 -20 20 -20 124 0 62 3 116 7 120 4 4 25 6 48 4
l40 -3 0 -125z"/>
<path d="M6305 7032 c-16 -11 -35 -50 -35 -70 0 -27 42 -62 73 -62 37 0 34 13
-7 35 -44 24 -52 59 -18 75 21 9 28 8 44 -10 10 -11 23 -20 28 -20 17 0 11 47
-6 54 -21 8 -67 7 -79 -2z"/>
<path d="M1923 6388 c2 -7 10 -13 17 -13 7 0 15 6 18 13 2 7 -5 12 -18 12 -13
0 -20 -5 -17 -12z"/>
<path d="M7086 6341 c-3 -5 3 -26 14 -47 l19 -39 1 41 c0 28 -5 44 -15 47 -8
4 -17 2 -19 -2z"/>
<path d="M1542 5938 c-20 -20 -15 -58 8 -58 11 0 20 6 20 13 0 6 3 22 6 35 7
25 -13 31 -34 10z"/>
<path d="M1318 5394 c-24 -13 -28 -21 -28 -59 0 -42 3 -47 34 -61 25 -12 41
-14 62 -7 26 9 29 14 32 61 3 48 1 52 -27 66 -36 19 -39 19 -73 0z"/>
<path d="M7586 5342 c-10 -16 10 -67 27 -70 13 -3 17 4 17 25 0 39 -29 68 -44
45z"/>
<path d="M3482 4733 c2 -10 12 -18 23 -18 11 0 21 8 23 18 3 13 -3 17 -23 17
-20 0 -26 -4 -23 -17z"/>
<path d="M3830 4736 c0 -8 5 -18 10 -21 6 -3 10 3 10 14 0 12 -4 21 -10 21 -5
0 -10 -6 -10 -14z"/>
<path d="M3897 4380 c-16 -41 -37 -127 -37 -155 0 -33 -25 -65 -51 -65 -9 0
-24 -7 -35 -15 -10 -8 -37 -15 -59 -16 -22 -1 -53 -4 -70 -8 -29 -7 -28 -8 27
-24 31 -10 78 -20 103 -24 60 -8 79 -35 95 -139 18 -120 38 -140 47 -47 6 67
33 156 52 170 9 7 27 13 40 13 23 0 133 25 161 37 8 3 -16 12 -55 19 -145 26
-165 33 -171 62 -3 15 -10 37 -15 50 -5 13 -10 40 -10 60 -2 53 -14 101 -22
82z"/>
<path d="M4300 4084 c0 -20 13 -23 45 -10 l30 13 -37 4 c-26 4 -38 1 -38 -7z"/>
<path d="M4321 3958 c0 -7 4 -22 9 -33 7 -17 9 -15 9 13 1 17 -3 32 -9 32 -5
0 -10 -6 -9 -12z"/>
<path d="M1180 3767 c0 -31 27 -57 36 -34 9 25 0 51 -19 55 -12 3 -17 -3 -17
-21z"/>
<path d="M1470 3210 c0 -8 -3 -25 -6 -37 -5 -17 -2 -23 9 -23 23 0 32 39 13
58 -13 14 -16 14 -16 2z"/>
<path d="M1650 2665 c-7 -9 -10 -19 -6 -22 8 -9 38 9 44 25 5 17 -23 15 -38
-3z"/>
<path d="M7201 2711 c-24 -6 -50 -55 -37 -68 7 -7 76 56 76 69 0 9 -5 9 -39
-1z"/>
<path d="M7275 2620 c-10 -11 -16 -23 -12 -26 7 -7 47 14 47 26 0 19 -18 19
-35 0z"/>
<path d="M4555 2260 c-4 -6 5 -10 20 -10 15 0 24 4 20 10 -3 6 -12 10 -20 10
-8 0 -17 -4 -20 -10z"/>
<path d="M3780 2260 c0 -5 9 -10 21 -10 11 0 17 5 14 10 -3 6 -13 10 -21 10
-8 0 -14 -4 -14 -10z"/>
<path d="M3780 2170 c0 -5 9 -10 20 -10 11 0 20 5 20 10 0 6 -9 10 -20 10 -11
0 -20 -4 -20 -10z"/>
<path d="M4082 2258 c5 -15 28 -18 29 -3 0 6 -7 12 -17 13 -10 3 -15 -1 -12
-10z"/>
</g>
</svg>
