<?xml version="1.0" standalone="no"?>
<!DOCTYPE svg PUBLIC "-//W3C//DTD SVG 20010904//EN"
 "http://www.w3.org/TR/2001/REC-SVG-20010904/DTD/svg10.dtd">
<svg version="1.0" xmlns="http://www.w3.org/2000/svg"
 width="450.000000pt" height="450.000000pt" viewBox="0 0 450.000000 450.000000"
 preserveAspectRatio="xMidYMid meet">
<metadata>
Created by potrace 1.10, written by Peter Selinger 2001-2011
</metadata>
<g transform="translate(0.000000,450.000000) scale(0.100000,-0.100000)"
fill="#050505" stroke="none">
<path d="M2010 3964 c-14 -2 -68 -12 -120 -20 -130 -22 -352 -96 -476 -159
-530 -269 -882 -757 -975 -1350 -17 -104 -17 -376 0 -490 44 -307 165 -597
348 -838 68 -90 226 -250 318 -322 540 -424 1277 -505 1895 -209 426 204 755
567 915 1007 40 113 80 289 94 419 93 850 -448 1654 -1279 1900 -164 48 -248
60 -475 63 -121 2 -231 1 -245 -1z m441 -59 c204 -27 381 -81 561 -171 182
-91 313 -190 474 -356 339 -351 514 -835 475 -1315 -27 -326 -112 -571 -294
-846 -97 -147 -282 -337 -427 -439 -524 -370 -1197 -430 -1768 -158 -933 445
-1277 1585 -745 2464 197 326 506 584 863 721 259 101 580 138 861 100z"/>
<path d="M2092 3873 c-19 -7 -42 -58 -42 -93 0 -18 -4 -29 -10 -25 -5 3 -10 1
-10 -4 0 -6 5 -11 11 -11 5 0 8 -4 4 -9 -6 -11 1 -16 38 -25 21 -5 27 -3 28
11 0 11 3 13 6 6 2 -7 19 -13 38 -13 39 0 53 15 49 55 -1 17 -3 35 -3 42 -1 7
-8 10 -18 6 -13 -5 -15 -2 -10 11 13 33 -41 65 -81 49z m76 -75 c24 -54 27
-64 14 -72 -10 -6 -18 -3 -24 8 -12 21 -58 22 -58 1 0 -8 -9 -15 -20 -15 -24
0 -24 -4 -4 75 14 56 20 65 39 65 19 0 29 -13 53 -62z"/>
<path d="M2108 3795 c-4 -20 -1 -25 14 -25 14 0 18 5 14 16 -3 9 -6 20 -6 25
0 20 -18 7 -22 -16z"/>
<path d="M2366 3868 c-30 -17 -50 -78 -38 -123 7 -24 16 -30 62 -42 71 -18 99
-11 107 27 3 18 10 27 17 23 6 -4 4 2 -4 12 -12 15 -12 17 -1 10 11 -6 13 -3
8 16 -4 13 -7 29 -7 36 0 22 -31 43 -54 37 -12 -3 -33 -1 -47 4 -16 7 -31 6
-43 0z m60 -60 l19 -53 3 48 c3 40 6 47 24 47 19 0 20 -4 14 -46 -3 -26 -6
-57 -6 -70 0 -19 -5 -24 -24 -24 -19 0 -27 10 -44 53 l-21 52 0 -43 c-1 -29
-6 -45 -16 -49 -25 -9 -27 1 -20 71 7 59 10 66 29 66 17 0 26 -11 42 -52z"/>
<path d="M1810 3831 c-36 -10 -54 -51 -38 -88 14 -34 15 -39 17 -58 2 -24 40
-33 84 -20 40 12 66 39 47 50 -5 3 -10 17 -10 31 0 14 -7 40 -14 59 -16 37
-31 41 -86 26z m68 -18 c-2 -11 -14 -19 -31 -21 -16 -2 -27 -9 -27 -18 0 -12
8 -13 35 -8 28 5 35 3 35 -10 0 -11 -9 -16 -30 -16 -21 0 -30 -5 -30 -16 0
-13 7 -15 40 -9 32 5 40 4 40 -8 0 -9 -18 -19 -46 -26 -26 -7 -48 -11 -49 -9
-5 5 -36 130 -33 133 3 3 78 22 91 24 5 1 7 -7 5 -16z"/>
<path d="M2643 3778 c-28 -56 -34 -98 -14 -98 5 0 17 29 26 65 10 36 21 65 25
65 11 0 45 -29 34 -30 -6 0 -19 -27 -28 -59 -15 -52 -19 -58 -38 -53 -14 3
-19 1 -14 -6 13 -22 46 -13 59 16 6 15 15 30 20 33 5 3 7 12 6 20 -1 8 1 22 6
32 9 21 -19 57 -45 57 -9 0 -25 -18 -37 -42z"/>
<path d="M2862 3738 c-13 -7 -21 -17 -18 -25 3 -7 1 -13 -3 -13 -10 0 -31 -54
-31 -80 0 -18 92 -70 121 -70 22 1 61 38 53 51 -4 8 -3 9 4 5 8 -5 12 1 12 16
0 13 3 33 6 44 5 19 -3 26 -55 53 -34 17 -63 31 -64 30 -1 0 -12 -5 -25 -11z
m58 -74 c0 -62 10 -64 30 -5 14 43 17 46 38 32 11 -6 7 -21 -17 -70 -17 -33
-35 -61 -39 -61 -21 1 -31 21 -34 70 l-3 55 -19 -42 c-17 -40 -34 -52 -49 -37
-3 3 8 35 25 69 27 55 34 62 50 54 14 -8 18 -22 18 -65z"/>
<path d="M1533 3728 c-15 -19 -22 -45 -15 -52 3 -4 7 -17 9 -29 2 -12 8 -23
13 -25 6 -2 10 -10 10 -17 0 -23 37 -38 61 -25 11 7 23 9 26 6 3 -2 14 4 25
14 24 22 18 49 -13 57 -16 4 -17 8 -7 14 10 7 9 9 -5 9 -10 0 -30 14 -44 30
-27 32 -45 37 -60 18z m47 -48 c16 -49 23 -54 51 -39 17 9 23 8 30 -2 6 -10
-2 -19 -32 -32 -23 -10 -45 -15 -49 -10 -4 4 -18 32 -31 61 -18 44 -20 55 -9
62 19 12 25 7 40 -40z"/>
<path d="M1281 3602 c-18 -14 -26 -31 -28 -64 -4 -39 0 -50 22 -73 22 -22 34
-26 69 -23 63 6 77 18 83 72 5 40 2 49 -20 72 -35 35 -94 43 -126 16z m97 -19
c-2 -13 -11 -17 -29 -15 -39 5 -56 -21 -35 -53 25 -38 68 -28 70 16 1 33 36
39 36 6 0 -40 -36 -77 -75 -77 -62 0 -98 77 -55 120 27 27 93 28 88 3z"/>
<path d="M3112 3565 c-16 -15 -24 -36 -26 -68 -3 -40 0 -49 25 -72 16 -14 33
-25 39 -25 5 0 10 -4 10 -10 0 -5 9 -10 21 -10 28 0 61 19 54 31 -4 5 -1 9 4
9 6 0 11 9 11 20 0 11 4 20 9 20 5 0 8 8 6 18 -2 9 -6 29 -10 44 -11 56 -101
83 -143 43z m113 -20 c21 -20 35 -65 21 -65 -16 0 -36 14 -36 25 0 24 -27 37
-50 25 -16 -9 -20 -19 -18 -43 2 -27 8 -33 31 -35 33 -4 34 4 5 28 -37 30 -12
35 27 6 37 -28 37 -35 1 -81 -16 -20 -16 -20 -21 0 -4 12 -15 22 -27 22 -48 4
-75 65 -45 104 33 43 78 49 112 14z"/>
<path d="M902 3250 c-14 -24 -16 -60 -2 -60 6 0 9 -3 8 -7 -4 -14 47 -83 60
-83 13 0 -3 34 -50 101 -17 25 -17 27 1 43 16 15 22 14 82 -7 35 -12 66 -23
68 -24 10 -6 -22 -31 -33 -27 -18 7 -41 -24 -42 -58 -2 -28 -1 -28 17 -12 10
9 21 25 24 35 4 11 12 19 20 19 15 0 26 35 18 56 -3 8 -18 18 -34 21 -16 3
-29 9 -29 14 0 5 -21 9 -48 9 -36 0 -50 -5 -60 -20z"/>
<path d="M3507 3222 c-15 -10 -24 -22 -20 -26 4 -4 0 -4 -9 -1 -22 9 -31 -10
-30 -62 1 -71 67 -108 112 -63 11 11 20 17 20 13 0 -5 7 5 15 21 23 44 19 83
-11 111 -32 30 -41 30 -77 7z m73 -22 c24 -24 27 -70 5 -70 -9 0 -15 9 -15 24
0 14 -4 27 -9 31 -17 10 -21 -11 -8 -44 14 -37 2 -64 -30 -69 -36 -5 -82 76
-56 101 11 11 31 -13 26 -32 -5 -20 22 -48 32 -32 3 6 1 19 -5 30 -13 26 -13
54 2 69 17 17 35 15 58 -8z"/>
<path d="M950 3212 c0 -5 6 -15 14 -21 10 -9 16 -8 26 4 7 9 8 15 2 15 -6 0
-17 3 -26 6 -9 3 -16 2 -16 -4z"/>
<path d="M1813 3123 c-10 -4 -13 -79 -13 -328 0 -177 -3 -336 -6 -353 -5 -26
-12 -31 -38 -34 -17 -2 19 -3 79 -3 61 0 93 1 73 3 l-38 3 0 348 c0 379 -1
387 -57 364z m38 -30 c0 -5 1 -148 3 -319 2 -253 0 -314 -11 -330 -12 -16 -15
-17 -23 -4 -10 16 -13 620 -3 645 5 15 33 21 34 8z"/>
<path d="M742 3019 c-12 -11 -20 -24 -17 -29 3 -4 0 -10 -5 -12 -6 -2 -13 -15
-15 -30 -4 -20 2 -32 26 -52 17 -14 41 -26 55 -26 13 0 24 -4 24 -10 0 -17 20
-11 45 14 16 16 22 31 18 42 -4 11 -2 15 4 11 13 -8 37 37 30 57 -8 20 -83 56
-117 56 -14 0 -36 -9 -48 -21z m69 1 c10 -6 19 -17 19 -24 0 -18 29 -29 45
-16 17 14 26 1 14 -22 -8 -15 -18 -19 -39 -14 -36 7 -47 -17 -17 -37 16 -11
19 -18 11 -26 -7 -8 -26 -3 -67 20 -31 17 -57 33 -57 35 0 17 55 94 67 94 3 0
13 -5 24 -10z"/>
<path d="M770 2974 c-11 -12 -10 -18 3 -31 15 -15 17 -15 25 8 15 38 -4 53
-28 23z"/>
<path d="M3650 2982 c-61 -40 -88 -90 -57 -109 6 -4 17 -17 23 -28 14 -25 37
-30 56 -13 21 20 56 38 72 38 23 0 28 33 11 73 -23 54 -60 68 -105 39z m99
-93 c-9 -5 -17 2 -26 23 -10 22 -17 28 -24 21 -8 -8 -8 -17 0 -31 14 -27 14
-32 -3 -32 -8 0 -18 9 -21 20 -3 11 -13 20 -21 20 -18 0 -18 -4 1 -40 13 -25
13 -29 0 -34 -11 -4 -22 8 -38 41 -12 26 -18 48 -12 50 6 2 33 16 60 31 l50
28 23 -44 c19 -35 21 -46 11 -53z"/>
<path d="M2863 2930 c-12 -5 -29 -26 -38 -46 -14 -34 -17 -36 -49 -30 -74 14
-120 -47 -78 -103 10 -14 24 -27 31 -27 6 -1 17 -2 24 -3 8 -1 9 -4 1 -9 -6
-4 -13 -13 -16 -21 -7 -24 -36 -21 -42 5 -4 16 -14 24 -27 24 -13 0 -18 4 -13
12 5 8 2 9 -9 5 -9 -3 -19 -2 -22 3 -4 6 -17 10 -31 10 -14 0 -44 9 -66 20
-44 21 -148 28 -148 10 0 -5 -6 -10 -14 -10 -8 0 -21 -8 -28 -17 -16 -22 -42
-39 -88 -59 -36 -15 -54 -43 -63 -96 -3 -19 0 -28 9 -28 9 0 14 12 14 33 0 44
36 79 82 79 28 0 36 5 47 30 9 20 28 37 58 50 43 19 47 19 90 3 24 -10 47 -23
49 -30 4 -8 22 -13 50 -12 36 0 50 -5 73 -28 16 -15 32 -37 35 -50 9 -36 32
-38 47 -3 26 63 125 71 163 14 8 -13 18 -58 22 -99 l7 -75 -29 -5 -29 -5 30 2
30 1 0 91 c0 95 -5 107 -52 132 -12 7 -40 12 -62 12 -23 0 -41 5 -41 10 0 6 4
10 10 10 5 0 12 16 16 36 4 21 10 31 14 24 4 -6 34 -14 67 -17 58 -5 61 -4 81
25 36 50 26 103 -23 126 -37 18 -50 19 -82 6z m87 -30 c11 -11 20 -32 20 -47
0 -34 -36 -73 -67 -73 -30 0 -73 42 -73 70 0 29 44 70 75 70 14 0 34 -9 45
-20z m-167 -81 c14 -23 1 -67 -23 -74 -46 -15 -82 49 -48 83 17 17 58 11 71
-9z"/>
<path d="M645 2760 c-4 -6 -10 -8 -15 -5 -13 8 -40 -54 -40 -90 0 -48 47 -95
95 -95 42 0 99 47 89 73 -3 9 -1 24 5 36 9 16 6 25 -23 55 -26 28 -41 36 -69
36 -20 0 -39 -5 -42 -10z m98 -41 c23 -28 22 -60 -3 -92 -27 -34 -53 -41 -88
-23 -50 26 -57 82 -16 123 20 20 31 24 57 19 18 -3 40 -16 50 -27z"/>
<path d="M650 2695 c-20 -24 3 -65 35 -65 32 0 55 41 35 65 -7 8 -23 15 -35
15 -12 0 -28 -7 -35 -15z"/>
<path d="M3775 2740 c3 -6 -1 -7 -9 -4 -9 3 -16 2 -16 -4 0 -5 -13 -12 -30
-15 -24 -5 -30 -12 -30 -31 0 -14 4 -28 10 -31 6 -4 9 3 7 15 -2 18 7 25 58
41 33 10 63 19 66 19 11 0 25 -87 17 -110 -7 -19 -13 -21 -44 -15 -30 5 -36 3
-41 -14 -7 -26 -28 -27 -38 -4 -4 12 2 24 19 38 18 14 23 24 16 34 -7 12 -12
12 -34 -3 -14 -9 -26 -21 -26 -26 0 -17 21 -65 32 -71 11 -7 69 11 79 25 4 5
12 5 18 2 6 -4 18 0 27 9 13 12 15 27 10 62 -9 64 -29 93 -67 93 -17 0 -28 -4
-24 -10z"/>
<path d="M2385 2705 c-14 -13 -25 -34 -25 -47 1 -20 3 -18 15 10 9 20 27 38
47 47 28 12 30 14 10 15 -13 0 -34 -11 -47 -25z"/>
<path d="M3794 2682 c-7 -4 -8 -15 -3 -29 14 -39 43 -25 32 15 -6 23 -11 26
-29 14z"/>
<path d="M1419 2570 c-7 -35 -4 -48 7 -38 3 4 4 21 2 40 l-3 33 -6 -35z"/>
<path d="M1530 2551 c0 -49 -9 -60 -58 -67 -37 -6 -43 -9 -27 -15 34 -13 67
-10 81 9 10 14 15 15 26 4 10 -10 8 -14 -10 -19 -18 -4 -22 -11 -18 -27 3 -11
6 -32 6 -45 0 -37 18 -13 22 29 3 32 6 35 48 44 37 7 41 10 25 17 -11 4 -32 8
-47 8 -26 1 -28 4 -28 40 0 22 -4 43 -10 46 -6 4 -10 -6 -10 -24z"/>
<path d="M2170 2536 c0 -14 5 -28 10 -31 6 -4 10 7 10 24 0 17 -4 31 -10 31
-5 0 -10 -11 -10 -24z"/>
<path d="M2215 2550 c-4 -7 113 -10 344 -10 227 0 351 4 351 10 0 6 -121 10
-344 10 -219 0 -347 -4 -351 -10z"/>
<path d="M2197 2473 c12 -2 24 -12 26 -21 3 -12 5 -10 6 6 1 18 -4 22 -26 21
-23 -1 -24 -2 -6 -6z"/>
<path d="M2255 2443 c24 -134 110 -226 239 -260 59 -15 146 -4 207 27 81 42
159 163 159 247 l0 23 -306 0 -306 0 7 -37z m557 7 c-1 -5 5 -10 13 -10 23 0
18 -38 -13 -100 -32 -63 -98 -119 -167 -139 -58 -17 -157 -10 -212 15 -42 18
-56 34 -30 34 8 0 7 4 -3 10 -8 5 -19 10 -25 10 -5 0 -3 -5 5 -10 8 -5 11 -10
5 -10 -21 0 -35 17 -29 36 4 14 3 16 -4 5 -8 -11 -15 -5 -35 26 -23 36 -51
113 -41 113 2 0 7 0 11 -1 4 0 10 8 14 18 6 17 23 18 260 16 169 -2 253 -6
251 -13z"/>
<path d="M2548 2213 c12 -2 32 -2 45 0 12 2 2 4 -23 4 -25 0 -35 -2 -22 -4z"/>
<path d="M545 2436 c-7 -12 -13 -42 -14 -67 -1 -39 3 -48 23 -59 34 -18 114
-17 132 2 20 20 29 105 13 124 -14 17 -59 19 -59 2 0 -9 -3 -9 -11 -1 -6 6
-18 9 -25 6 -8 -3 -14 -1 -14 4 0 18 -32 10 -45 -11z m99 -22 c49 21 55 20 49
-4 -3 -11 -20 -24 -42 -31 l-36 -13 35 -10 c24 -7 34 -16 32 -27 -2 -13 -12
-14 -73 -6 -56 8 -69 13 -67 26 3 11 13 15 33 13 l30 -2 -27 21 c-27 20 -36
48 -21 63 4 3 16 -5 28 -20 20 -26 21 -26 59 -10z"/>
<path d="M3824 2428 c-23 -10 -47 -30 -54 -43 -17 -31 -6 -75 19 -75 26 0 52
-11 47 -19 -3 -4 16 -4 42 -1 45 5 47 6 44 35 -2 17 -3 48 -4 70 0 22 -2 32
-5 22 -3 -10 -26 -28 -51 -39 l-47 -22 53 -9 c41 -8 52 -14 52 -28 0 -22 -2
-22 -50 -10 -19 5 -47 12 -61 15 -15 3 -29 15 -32 26 -4 17 6 26 64 55 38 20
69 37 69 39 0 10 -51 1 -86 -16z"/>
<path d="M2870 2407 c0 -39 -49 -123 -96 -167 -149 -137 -370 -112 -482 54
-17 27 -36 62 -42 80 -7 23 -9 -3 -5 -93 3 -68 5 -141 5 -161 0 -36 1 -38 40
-43 58 -7 88 -30 96 -72 7 -42 -14 -81 -52 -96 -16 -5 -174 -8 -392 -7 l-366
3 -23 40 c-20 35 -23 54 -23 158 l0 117 304 0 304 0 4 -118 c3 -101 7 -123 27
-155 12 -20 27 -37 32 -37 12 0 12 2 -7 39 -9 17 -17 37 -18 44 -1 7 -5 17 -9
24 -4 6 -4 18 -1 27 3 9 1 16 -6 16 -27 0 4 20 33 21 l32 2 -30 6 c-29 6 -30
8 -33 66 -2 33 -8 64 -13 70 -5 5 -9 26 -9 47 l0 38 -305 0 -305 0 0 -45 c0
-26 -5 -45 -11 -45 -7 0 -9 -41 -7 -127 4 -145 5 -148 36 -183 22 -24 26 -25
192 -30 93 -3 236 -2 317 2 82 4 295 10 474 14 l326 7 7 196 c4 108 9 226 12
264 3 37 2 67 -1 67 -3 0 -5 -10 -5 -23z m-531 -184 c64 -60 115 -78 221 -77
81 0 101 3 135 23 65 37 105 70 136 114 16 22 29 36 29 30 0 -5 -7 -18 -15
-29 -18 -24 -19 -40 -1 -25 11 9 12 -2 8 -66 -3 -43 -6 -99 -6 -125 0 -27 -1
-49 -1 -50 0 -1 -79 -4 -175 -7 -146 -5 -175 -8 -175 -21 0 -13 27 -15 170
-18 211 -3 248 -21 49 -24 l-139 -2 135 -6 c201 -8 141 -22 -96 -22 -222 -1
-238 3 -214 46 25 47 -34 126 -94 126 -30 0 -46 40 -46 118 0 45 3 53 16 48
12 -4 10 1 -5 23 -31 43 -25 52 6 11 15 -19 43 -49 62 -67z m-221 55 c4 -21
24 -19 -326 -21 -214 0 -254 5 -239 30 3 5 130 8 284 8 256 0 278 -1 281 -17z
m732 -288 c0 -6 -65 -10 -175 -10 -110 0 -175 4 -175 10 0 6 65 10 175 10 110
0 175 -4 175 -10z"/>
<path d="M1713 2370 c0 -25 2 -35 4 -22 2 12 2 32 0 45 -2 12 -4 2 -4 -23z"/>
<path d="M1953 2365 c0 -27 2 -38 4 -22 2 15 2 37 0 50 -2 12 -4 0 -4 -28z"/>
<path d="M1763 2140 c0 -41 2 -58 4 -37 2 20 2 54 0 75 -2 20 -4 3 -4 -38z"/>
<path d="M1938 2150 l-14 -65 -63 -11 c-34 -6 -64 -14 -67 -16 -2 -3 17 -8 43
-11 91 -12 87 -9 99 -70 6 -31 9 -59 6 -62 -3 -3 -1 -5 5 -5 6 0 16 27 23 59
l12 60 50 10 c27 6 59 11 70 11 38 0 10 12 -54 24 l-63 11 -11 50 c-18 82 -20
83 -36 15z m33 -104 c-14 -16 -41 -11 -41 8 0 7 5 17 12 24 19 19 46 -11 29
-32z"/>
<path d="M2013 2150 c0 -36 2 -50 4 -32 2 17 2 47 0 65 -2 17 -4 3 -4 -33z"/>
<path d="M3782 2138 c-7 -7 -12 -19 -12 -28 0 -9 5 -21 12 -28 14 -14 117 -16
138 -2 10 7 -7 10 -57 10 -66 0 -73 2 -73 20 0 18 7 20 73 21 49 0 66 3 52 9
-30 13 -119 12 -133 -2z"/>
<path d="M1621 2057 c-1 -60 15 -113 41 -135 12 -10 11 -4 -4 27 -10 21 -23
67 -27 102 l-8 64 -2 -58z"/>
<path d="M1906 1995 c4 -16 11 -37 15 -45 6 -10 7 -4 3 15 -4 17 -11 37 -15
45 -6 10 -7 4 -3 -15z"/>
<path d="M612 1973 c-35 -4 -45 -9 -58 -34 -16 -32 -11 -114 9 -126 16 -10 99
-4 130 8 27 11 28 13 22 73 -9 82 -11 86 -37 84 -13 -1 -42 -3 -66 -5z m83
-20 c4 -12 -2 -24 -19 -38 -34 -27 -34 -47 1 -43 18 2 28 -2 31 -13 2 -12 -12
-18 -64 -28 -36 -6 -69 -9 -72 -6 -4 3 -6 29 -7 57 0 61 20 82 57 59 20 -12
24 -11 38 7 19 26 26 27 35 5z"/>
<path d="M590 1885 c0 -19 5 -25 21 -25 15 0 19 4 15 16 -3 9 -6 20 -6 25 0 5
-7 9 -15 9 -9 0 -15 -9 -15 -25z"/>
<path d="M3790 1943 c-30 -12 -50 -43 -54 -85 -4 -50 1 -68 21 -68 8 0 11 -4
8 -10 -7 -11 -3 -11 63 -12 31 0 47 5 57 18 23 30 17 37 -11 15 -33 -26 -44
-26 -44 -2 0 10 9 21 20 24 39 10 18 67 -25 67 -41 0 -58 -36 -29 -65 9 -8 13
-22 10 -31 -8 -21 -44 -1 -52 31 -13 51 20 95 70 95 43 0 66 -18 76 -60 l8
-35 1 41 c1 34 -4 45 -24 58 -29 19 -73 28 -95 19z"/>
<path d="M716 1693 c-4 -5 -11 -8 -14 -9 -20 -2 -41 -17 -36 -25 3 -5 0 -9 -7
-9 -17 0 -38 -31 -39 -56 0 -12 8 -32 18 -44 14 -18 28 -21 77 -21 69 0 95 20
95 75 0 25 -2 28 -11 16 -8 -11 -9 -8 -4 13 3 16 2 26 -3 23 -5 -3 -14 6 -20
19 -11 24 -41 33 -56 18z m41 -33 c-3 -11 1 -21 8 -24 7 -2 15 -16 19 -31 9
-35 -10 -58 -43 -52 -13 3 -33 0 -43 -6 -24 -16 -52 2 -56 35 -4 33 23 56 48
40 18 -11 30 -7 30 10 0 4 -7 8 -15 8 -8 0 -15 7 -15 16 0 11 6 15 19 11 12
-3 22 1 25 10 8 20 29 5 23 -17z"/>
<path d="M736 1615 c-10 -26 -7 -35 9 -35 17 0 19 18 6 38 -7 11 -10 10 -15
-3z"/>
<path d="M665 1591 c-7 -12 12 -24 25 -16 11 7 4 25 -10 25 -5 0 -11 -4 -15
-9z"/>
<path d="M3675 1640 c-11 -12 -19 -36 -19 -62 -1 -35 3 -43 19 -46 11 -2 39
-13 63 -24 23 -12 45 -18 48 -15 4 4 0 9 -9 13 -15 5 -15 9 -2 34 11 21 12 31
4 36 -12 7 -29 -12 -29 -33 0 -7 -7 -13 -16 -13 -11 0 -15 6 -11 18 2 9 6 23
8 31 8 28 -19 21 -29 -9 -10 -29 -22 -37 -35 -24 -7 7 25 94 35 94 4 0 30 -9
58 -20 63 -25 73 -25 58 -1 -6 11 -28 22 -47 26 -20 3 -45 9 -56 11 -13 3 -28
-3 -40 -16z"/>
<path d="M824 1420 c-17 -11 -37 -32 -45 -47 -8 -16 -18 -31 -24 -35 -6 -5 -5
-17 5 -35 14 -25 22 -28 74 -31 63 -3 106 15 106 46 0 10 -11 34 -25 54 -14
20 -25 41 -25 46 0 6 -7 13 -16 16 -19 7 -14 9 -50 -14z m48 -33 c-15 -17 3
-44 33 -49 11 -2 20 -10 20 -18 0 -11 -78 -34 -137 -39 -4 -1 -9 8 -13 19 -4
14 6 35 37 74 36 46 45 52 57 40 11 -10 12 -16 3 -27z"/>
<path d="M825 1340 c-18 -19 -18 -20 3 -20 25 0 34 11 23 28 -5 9 -12 7 -26
-8z"/>
<path d="M3564 1405 c-36 -43 -45 -103 -19 -125 8 -7 26 -13 40 -14 14 0 25
-4 25 -8 0 -11 48 -10 54 1 3 4 -6 6 -19 3 -32 -6 -32 11 0 32 14 9 25 21 25
26 0 18 -26 10 -50 -15 -13 -14 -29 -25 -36 -25 -19 0 -43 40 -37 59 16 46 83
83 83 46 0 -8 -6 -15 -14 -15 -23 0 -49 -31 -37 -43 8 -8 19 -3 39 16 35 34
45 34 71 1 18 -23 21 -24 21 -7 0 25 -34 61 -63 67 -55 11 -74 12 -83 1z"/>
<path d="M2588 1198 c-2 -4 -46 -8 -98 -9 -52 0 -100 -5 -107 -11 -8 -6 -18
-6 -31 1 -23 12 -189 12 -214 -1 -10 -4 -19 -4 -23 1 -9 15 -262 12 -274 -3
-15 -18 -16 -97 -3 -122 17 -32 110 -41 128 -13 3 5 14 4 25 -2 20 -10 197 -8
215 4 6 3 28 0 49 -8 22 -7 49 -11 60 -8 11 3 44 6 72 7 29 1 56 5 59 9 4 4
13 2 20 -4 21 -18 64 -2 64 23 0 20 2 19 24 -7 19 -22 29 -26 50 -21 14 3 26
11 26 16 0 6 9 30 21 55 23 49 18 85 -12 85 -10 0 -19 4 -19 8 0 11 -29 11
-32 0z m-632 -58 c0 -14 3 -31 7 -38 5 -6 3 -21 -3 -32 -9 -16 -21 -20 -60
-20 l-50 0 0 58 c0 32 2 61 5 63 2 3 26 3 52 -1 43 -4 48 -8 49 -30z m152 1
c2 -13 -2 -27 -9 -32 -11 -6 -10 -12 4 -27 23 -25 21 -32 -6 -32 -16 0 -28 9
-37 28 l-14 27 -4 -27 c-2 -20 -9 -28 -23 -28 -17 0 -19 7 -19 63 l0 63 53 -6
c45 -4 52 -8 55 -29z m82 -26 c0 -58 -2 -65 -20 -65 -18 0 -20 7 -20 59 0 48
3 60 18 64 9 3 18 5 20 6 1 0 2 -28 2 -64z m131 55 c21 -12 26 -40 6 -40 -7 0
-18 5 -24 11 -17 17 -45 -18 -33 -42 11 -20 35 -25 45 -9 3 6 -3 10 -14 10
-12 0 -21 5 -21 10 0 6 11 10 24 10 13 0 31 3 40 6 13 5 16 -2 16 -35 0 -30
-4 -41 -15 -41 -8 0 -15 5 -15 12 0 9 -3 9 -12 0 -17 -17 -54 -15 -72 4 -24
24 -20 80 6 98 26 19 42 20 69 6z m113 -18 c-1 -30 33 -30 38 0 2 13 11 24 21
26 15 3 17 -5 17 -62 0 -59 -2 -66 -20 -66 -15 0 -20 7 -20 25 0 18 -5 25 -19
25 -14 0 -17 -6 -13 -25 4 -21 1 -25 -19 -25 -23 0 -24 3 -22 62 1 35 2 64 2
66 1 2 9 2 19 0 10 -2 17 -12 16 -26z m216 8 c0 -11 -7 -20 -15 -20 -11 0 -15
-12 -15 -45 0 -40 -2 -45 -23 -45 -20 0 -22 4 -19 45 4 40 2 45 -17 45 -12 0
-21 6 -21 14 0 11 14 16 48 19 26 2 50 4 55 5 4 1 7 -7 7 -18z"/>
<path d="M1890 1135 c0 -17 2 -18 24 -9 18 7 12 24 -10 24 -8 0 -14 -7 -14
-15z"/>
<path d="M1890 1090 c0 -5 9 -10 20 -10 11 0 20 5 20 10 0 6 -9 10 -20 10 -11
0 -20 -4 -20 -10z"/>
<path d="M2040 1135 c0 -8 7 -15 15 -15 8 0 15 7 15 15 0 8 -7 15 -15 15 -8 0
-15 -7 -15 -15z"/>
</g>
</svg>
