<?xml version="1.0" standalone="no"?>
<!DOCTYPE svg PUBLIC "-//W3C//DTD SVG 20010904//EN"
 "http://www.w3.org/TR/2001/REC-SVG-20010904/DTD/svg10.dtd">
<svg version="1.0" xmlns="http://www.w3.org/2000/svg"
 width="300.000000pt" height="300.000000pt" viewBox="0 0 300.000000 300.000000"
 preserveAspectRatio="xMidYMid meet">
<metadata>
Created by potrace 1.10, written by Peter Selinger 2001-2011
</metadata>
<g transform="translate(0.000000,300.000000) scale(0.100000,-0.100000)"
fill="#000000" stroke="none">
<path d="M1290 2635 c-489 -77 -880 -453 -986 -947 -25 -114 -25 -342 0 -458
78 -369 305 -668 636 -835 177 -88 334 -125 541 -125 329 0 614 117 845 345
169 168 279 370 330 605 23 106 26 352 5 455 -30 152 -96 312 -182 445 -59 91
-238 267 -334 329 -256 167 -558 232 -855 186z m380 -35 c152 -25 325 -92 453
-177 89 -59 231 -195 296 -282 100 -135 175 -307 207 -478 24 -131 15 -364
-19 -496 -112 -423 -461 -752 -892 -842 -381 -79 -780 42 -1060 320 -217 217
-335 503 -335 814 0 133 10 204 45 326 51 176 144 333 283 477 169 175 399
297 637 337 72 12 309 13 385 1z"/>
<path d="M1388 2578 c-18 -14 -32 -87 -21 -104 5 -6 22 -10 38 -9 72 5 72 5
36 22 -26 13 -36 14 -39 5 -6 -20 -34 -14 -28 6 3 9 8 29 12 45 3 15 14 32 23
37 9 5 11 10 5 10 -5 0 -17 -6 -26 -12z"/>
<path d="M1430 2576 c0 -3 7 -24 16 -46 16 -40 27 -49 39 -30 3 6 2 10 -2 10
-5 0 -13 14 -18 32 -6 17 -16 33 -22 36 -7 2 -13 1 -13 -2z"/>
<path d="M1596 2572 c6 -4 16 -20 22 -37 10 -29 10 -29 11 -4 1 14 5 29 10 35
6 5 -2 10 -22 11 -18 1 -27 -1 -21 -5z"/>
<path d="M1557 2563 c-4 -3 -7 -25 -7 -49 0 -40 2 -43 33 -50 46 -11 50 -11
68 -2 22 10 30 46 20 83 -7 28 -8 26 -15 -22 -8 -62 -27 -70 -47 -20 l-13 32
-3 -27 c-3 -16 -10 -28 -17 -28 -10 0 -12 12 -8 45 4 44 2 52 -11 38z"/>
<path d="M1189 2541 c-23 -19 -24 -20 -8 -63 15 -39 19 -43 49 -41 40 2 70 27
52 45 -7 7 -12 26 -13 43 0 16 -3 24 -6 18 -2 -7 -13 -13 -23 -13 -10 0 -22
-5 -26 -11 -5 -8 1 -10 20 -7 30 6 36 -11 6 -19 -11 -3 -18 -9 -15 -13 3 -5
14 -6 24 -3 10 3 22 0 25 -6 6 -9 -60 -29 -68 -20 -2 2 -7 23 -11 46 -6 41 -6
42 27 52 23 6 27 9 12 10 -12 1 -32 -8 -45 -18z"/>
<path d="M1770 2532 c0 -7 -7 -12 -15 -12 -11 0 -15 -11 -15 -36 0 -20 4 -33
10 -29 11 7 32 77 25 84 -3 2 -5 -1 -5 -7z"/>
<path d="M1800 2504 c-6 -14 -10 -32 -10 -39 0 -8 -8 -19 -17 -24 -17 -10 -17
-10 -1 -11 21 0 29 13 38 62 8 44 4 49 -10 12z"/>
<path d="M1902 2488 c-23 -12 -36 -43 -30 -73 1 -9 22 -28 46 -41 l42 -24 22
25 c18 21 35 75 23 75 -3 0 -14 -18 -25 -40 -25 -49 -50 -45 -51 9 -1 36 -1
36 -11 9 -5 -16 -16 -28 -24 -28 -18 0 -18 3 7 51 24 49 42 46 49 -7 l6 -39 8
33 c6 27 4 36 -11 47 -21 17 -21 17 -51 3z"/>
<path d="M1017 2483 c-2 -5 -7 -21 -10 -38 -4 -16 -4 -24 0 -16 4 9 10 3 19
-19 13 -29 17 -32 46 -26 46 9 60 23 45 47 -7 12 -19 18 -30 15 -15 -4 -16 -2
-6 10 9 11 8 14 -5 14 -9 0 -16 5 -16 10 0 6 -5 10 -10 10 -6 0 -5 -13 3 -32
10 -25 19 -32 35 -30 30 4 28 -12 -3 -26 -14 -7 -27 -12 -29 -12 -8 0 -36 82
-31 91 4 5 4 9 1 9 -3 0 -7 -3 -9 -7z"/>
<path d="M880 2413 c-74 -27 -61 -123 16 -123 39 0 57 13 66 48 5 16 1 29 -12
40 -11 8 -17 19 -14 24 3 4 1 8 -5 8 -5 0 -15 2 -23 4 -7 3 -20 2 -28 -1z m40
-22 c0 -5 -10 -11 -22 -13 -15 -2 -23 -10 -23 -23 0 -13 8 -21 23 -23 17 -3
22 2 22 17 0 12 6 21 15 21 21 0 19 -26 -5 -50 -31 -31 -57 -25 -79 18 -17 32
1 62 39 62 17 0 30 -4 30 -9z"/>
<path d="M2068 2379 c-38 -21 -11 -127 28 -112 8 3 14 0 14 -6 0 -16 25 -14
40 4 7 8 15 13 19 11 3 -2 7 12 8 32 3 63 -56 102 -109 71z m88 -24 c22 -34 8
-47 -16 -15 -18 23 -20 24 -36 8 -19 -19 -12 -48 12 -48 14 0 14 3 4 15 -18
22 -8 27 18 9 26 -18 26 -22 6 -49 -9 -12 -18 -16 -22 -10 -4 6 -16 15 -27 21
-27 15 -32 64 -9 81 27 20 52 16 70 -12z"/>
<path d="M605 2170 c-17 -19 -20 -60 -4 -60 5 0 8 -4 4 -10 -3 -5 6 -17 20
-26 21 -13 31 -15 50 -6 16 8 23 17 19 27 -4 10 0 15 10 15 25 0 21 51 -4 57
-11 3 -20 9 -20 12 0 15 -60 7 -75 -9z m67 -12 c21 -6 37 -16 35 -22 -2 -6 -8
-11 -13 -11 -18 0 -33 -16 -28 -29 13 -33 -16 -22 -40 15 -38 57 -27 69 46 47z"/>
<path d="M2311 2144 c-20 -14 -22 -23 -18 -57 6 -44 19 -57 58 -57 34 0 59 29
58 66 -2 28 -2 27 -8 -6 l-7 -35 -8 33 c-4 17 -12 32 -18 32 -6 0 -7 -8 -3
-17 14 -33 10 -48 -12 -51 -27 -4 -62 43 -45 60 8 8 14 4 21 -15 15 -38 23
-34 16 7 -5 27 -3 36 12 45 17 10 17 10 -2 11 -11 0 -31 -7 -44 -16z"/>
<path d="M1213 2083 c-10 -4 -13 -60 -13 -238 l0 -234 -32 -3 c-23 -2 -33 -8
-34 -21 -1 -12 -1 -13 3 -2 3 12 22 15 81 16 42 1 67 4 55 6 -26 5 -25 -12
-23 294 1 168 -4 194 -37 182z"/>
<path d="M491 2001 c-12 -16 -21 -36 -21 -45 0 -26 33 -56 60 -56 26 0 64 21
66 37 0 4 4 16 8 26 11 25 0 46 -29 57 -43 16 -62 12 -84 -19z m63 -2 c13 -16
20 -18 26 -9 5 9 9 9 14 1 11 -17 -3 -31 -32 -31 -25 -1 -26 -2 -8 -15 33 -25
8 -36 -35 -15 -21 11 -39 23 -39 26 0 16 32 64 43 64 7 0 21 -10 31 -21z"/>
<path d="M2401 1974 c-18 -18 -22 -30 -17 -49 4 -14 10 -23 15 -21 5 3 11 -3
14 -13 3 -13 12 -18 23 -16 11 2 23 4 27 4 5 1 5 6 2 11 -3 6 1 10 9 10 20 0
20 21 1 46 -15 18 -15 18 -9 -8 4 -18 2 -28 -5 -28 -6 0 -11 7 -11 15 0 8 -4
15 -10 15 -13 0 -13 -6 0 -31 8 -14 7 -19 -3 -19 -11 0 -37 38 -37 55 0 3 18
14 40 25 l39 20 15 -27 c8 -16 15 -23 16 -18 0 6 -7 20 -14 31 -20 28 -65 27
-95 -2z"/>
<path d="M1912 1963 c-8 -3 -22 -19 -33 -37 -10 -17 -19 -26 -19 -20 0 8 -11
9 -32 5 -24 -5 -34 -14 -44 -41 -7 -19 -13 -30 -13 -25 -1 6 -5 4 -9 -2 -6
-10 -20 -8 -62 7 -75 28 -88 26 -161 -21 -80 -52 -89 -64 -87 -119 l0 -45 12
46 c13 55 31 79 58 79 11 0 33 14 48 30 33 36 75 40 112 10 14 -10 28 -17 31
-13 15 14 60 -10 79 -43 19 -32 22 -34 31 -17 25 47 62 55 102 21 20 -18 26
-32 27 -65 0 -24 4 -43 9 -43 18 0 9 87 -11 113 -27 34 -25 44 9 61 49 26 49
90 1 116 -20 11 -28 11 -48 3z m49 -23 c35 -19 15 -90 -26 -90 -20 0 -45 28
-45 50 0 20 25 50 41 50 6 0 19 -5 30 -10z m-106 -80 c0 -18 -6 -26 -23 -28
-24 -4 -38 18 -28 44 3 9 15 14 28 12 17 -2 23 -10 23 -28z"/>
<path d="M459 1853 c-35 -5 -59 -32 -66 -76 -5 -32 -2 -38 20 -48 15 -7 24
-16 21 -20 -7 -12 7 -11 44 2 16 5 33 20 37 32 14 42 16 67 5 67 -5 0 -10 7
-10 15 0 8 -7 15 -16 15 -8 0 -12 5 -9 10 3 6 5 9 3 9 -2 -1 -15 -4 -29 -6z
m35 -39 c20 -19 20 -34 0 -62 -21 -30 -59 -29 -80 3 -15 23 -15 27 0 50 19 29
56 33 80 9z"/>
<path d="M437 1804 c-13 -13 -7 -42 10 -48 21 -8 36 6 31 30 -3 19 -29 30 -41
18z"/>
<path d="M2494 1832 c4 -8 -3 -16 -18 -22 -19 -7 -26 -17 -26 -35 0 -14 4 -25
9 -25 5 0 11 -10 13 -22 3 -19 9 -23 40 -22 48 2 68 19 67 58 l-1 31 -7 -30
c-6 -25 -11 -30 -34 -28 -18 1 -27 -3 -27 -13 0 -16 -16 -19 -25 -3 -4 5 0 18
9 28 21 23 20 35 -1 27 -9 -4 -20 -1 -24 6 -6 9 7 17 44 29 29 10 43 17 30 18
-12 1 -29 4 -39 8 -12 4 -15 3 -10 -5z"/>
<path d="M1021 1693 c-1 -28 -5 -33 -26 -33 -31 0 -33 -17 -3 -22 16 -2 25
-12 29 -33 l7 -30 1 28 c0 15 8 30 16 32 46 15 50 19 23 23 -21 2 -30 11 -37
35 l-9 32 -1 -32z"/>
<path d="M1528 1703 c-10 -2 -18 -9 -18 -15 0 -5 7 -7 16 -4 9 3 25 6 37 6 18
0 19 2 7 10 -8 5 -17 9 -20 9 -3 -1 -13 -3 -22 -6z"/>
<path d="M1500 1644 c0 -6 7 -31 15 -55 53 -149 238 -185 342 -66 28 32 53 89
53 122 0 6 -75 10 -205 10 -145 0 -205 -3 -205 -11z m364 -26 c21 -21 20 -36
-4 -75 -26 -44 -92 -77 -155 -77 -91 -1 -176 69 -175 143 1 24 2 25 14 8 13
-17 14 -17 18 0 4 16 19 18 145 17 116 0 144 -3 157 -16z"/>
<path d="M407 1642 c-4 -6 -14 -9 -22 -6 -8 4 -17 0 -19 -7 -7 -24 -15 -75
-10 -61 3 6 13 12 22 12 12 0 13 3 4 12 -7 7 -12 19 -12 27 0 12 3 11 18 -3
17 -15 22 -15 53 -2 33 15 33 15 7 16 -14 0 -28 5 -30 12 -3 9 -6 9 -11 0z"/>
<path d="M2537 1618 c2 -5 -3 -8 -11 -8 -22 0 -32 -48 -15 -65 14 -13 99 -31
99 -21 0 3 -20 11 -44 17 -63 16 -65 34 -8 64 l47 24 -37 -2 c-20 -1 -34 -5
-31 -9z"/>
<path d="M460 1603 c0 -6 -10 -14 -22 -18 l-23 -8 23 -4 c12 -2 22 -11 22 -18
0 -11 -12 -13 -52 -8 -41 4 -50 3 -42 -6 6 -7 30 -11 54 -9 38 3 45 7 53 31 6
20 6 32 -2 40 -8 8 -11 8 -11 0z"/>
<path d="M1495 1575 c3 -16 5 -67 5 -112 l-1 -83 33 0 c19 0 39 -5 46 -12 18
-18 14 -63 -8 -83 -17 -16 -43 -17 -266 -17 -212 1 -250 3 -263 17 -12 11 -17
40 -19 105 l-4 90 205 0 205 0 3 -83 c4 -82 19 -124 41 -111 7 4 7 9 0 13 -5
3 -14 23 -20 44 -9 32 -8 37 6 37 10 0 13 3 7 8 -5 4 -11 25 -13 47 -2 22 -8
42 -13 43 -5 2 -9 17 -9 33 l0 29 -205 0 -205 0 0 -29 c0 -17 -4 -33 -10 -36
-5 -3 -10 -41 -10 -83 0 -59 5 -85 20 -109 19 -32 22 -33 87 -34 170 -3 400 1
423 8 14 3 102 8 197 10 l172 4 5 42 c3 23 7 96 9 162 l3 121 -23 -47 c-78
-155 -304 -153 -379 4 -18 36 -24 43 -19 22z m132 -142 c16 -5 55 -8 88 -8 47
1 69 6 102 28 23 14 44 31 48 37 10 16 25 11 18 -7 -4 -10 -2 -14 5 -9 17 10
10 -77 -8 -91 -13 -11 -13 -12 3 -13 9 0 17 -4 17 -10 0 -5 -50 -11 -117 -12
-97 -2 -118 -6 -118 -18 0 -12 20 -16 105 -18 58 -1 109 -7 114 -12 7 -7 -1
-10 -19 -11 -248 -10 -254 -10 -253 34 1 17 -4 33 -10 35 -7 2 -10 7 -8 11 3
4 -12 15 -33 25 -30 13 -40 23 -43 46 -3 17 -1 30 4 30 5 0 6 10 2 22 -6 19 0
17 34 -14 23 -21 54 -41 69 -45z m258 -104 c12 -4 -27 -8 -97 -8 -65 -1 -118
3 -118 8 0 11 187 12 215 0z"/>
<path d="M2576 1585 l-29 -12 28 -7 c31 -8 38 -4 33 17 -2 11 -8 12 -32 2z"/>
<path d="M1297 1457 c-4 -10 -7 -27 -7 -37 0 -24 -29 -40 -71 -40 -43 0 -32
-9 22 -18 40 -7 44 -10 44 -37 0 -45 18 -49 30 -7 9 32 15 38 48 43 44 7 60
19 26 19 -53 0 -68 11 -77 54 -6 31 -10 37 -15 23z"/>
<path d="M2528 1433 c-19 -5 -25 -38 -8 -48 15 -10 81 -12 86 -3 3 4 -15 8
-40 8 -34 0 -46 4 -46 15 0 11 12 15 48 16 35 0 42 3 27 9 -22 9 -40 10 -67 3z"/>
<path d="M1081 1364 c-1 -23 6 -48 15 -60 8 -10 12 -13 9 -6 -4 7 -10 34 -15
60 l-8 47 -1 -41z"/>
<path d="M415 1320 c-4 -7 -15 -10 -25 -7 -21 5 -30 -11 -30 -52 0 -32 27 -74
42 -65 6 4 13 1 17 -5 5 -8 17 -3 39 16 24 21 31 36 30 61 -1 18 -4 28 -8 22
-4 -7 -9 -11 -11 -10 -2 1 -12 -2 -21 -5 -24 -10 -23 -25 2 -25 22 0 28 -18 8
-24 -52 -16 -77 -15 -83 5 -4 11 -4 32 -1 45 6 22 11 25 36 19 24 -5 30 -3 30
10 0 15 2 16 17 4 14 -12 16 -12 11 1 -6 18 -44 25 -53 10z"/>
<path d="M2535 1295 c-38 -12 -45 -22 -45 -62 0 -59 57 -80 100 -36 13 14 13
14 -7 2 -28 -17 -45 -2 -19 16 23 17 14 45 -14 45 -26 0 -36 -25 -20 -45 17
-20 5 -32 -15 -15 -18 15 -20 51 -3 68 7 7 24 12 38 12 14 0 31 -5 38 -12 7
-7 12 -8 12 -2 0 5 -8 16 -17 25 -14 11 -25 12 -48 4z"/>
<path d="M461 1122 c-19 -10 -38 -29 -43 -42 -8 -23 -8 -23 10 -7 11 10 25 16
33 14 8 -2 11 -2 7 0 -14 8 -9 23 7 23 8 0 15 5 15 12 0 19 16 -3 28 -39 8
-23 7 -34 -1 -41 -17 -14 -80 -13 -89 1 -5 8 -8 9 -8 1 0 -18 28 -36 55 -36
41 0 68 31 61 70 -5 33 -22 62 -35 62 -3 0 -22 -8 -40 -18z"/>
<path d="M2442 1085 c-17 -37 -15 -62 6 -70 23 -10 62 -12 62 -4 0 4 3 16 6
26 5 17 5 17 -9 1 -19 -24 -30 -23 -22 2 8 25 -3 26 -21 3 -18 -26 -25 -12
-12 24 l12 31 38 -15 c21 -9 41 -13 44 -10 12 11 -30 37 -60 37 -25 0 -35 -6
-44 -25z"/>
<path d="M533 943 c-13 -8 -23 -25 -23 -37 1 -19 4 -18 31 12 32 36 43 35 44
-1 0 -12 6 -22 14 -22 8 0 16 -6 18 -12 3 -8 -11 -15 -36 -19 -51 -8 -61 -20
-21 -26 16 -2 27 -1 24 3 -2 4 6 9 18 11 31 4 34 31 8 73 -24 38 -43 43 -77
18z"/>
<path d="M2374 937 c-26 -15 -27 -74 -3 -90 19 -12 69 14 69 35 0 6 -11 1 -25
-12 -24 -22 -27 -23 -42 -7 -14 13 -14 21 -5 42 11 24 52 36 52 15 0 -5 -6
-10 -14 -10 -8 0 -16 -7 -20 -15 -3 -8 -2 -15 3 -15 5 0 14 7 21 15 15 18 46
20 53 3 3 -7 6 -8 6 -2 3 35 -59 63 -95 41z"/>
<path d="M1228 788 c-20 -20 -23 -59 -8 -87 9 -17 28 -18 270 -17 287 2 274
-1 286 65 8 41 -16 65 -56 56 -22 -4 -154 -7 -205 -4 -11 0 -47 0 -80 0 -33 0
-89 0 -125 2 -51 1 -69 -2 -82 -15z m316 -4 c25 -10 19 -24 -10 -24 -18 0 -25
-5 -22 -17 2 -9 9 -18 16 -19 7 -1 8 0 2 3 -19 9 -10 23 14 23 17 0 25 -7 28
-24 4 -22 1 -24 -34 -24 -49 -1 -68 27 -43 64 16 25 23 28 49 18z m78 -18 c-2
-9 4 -16 13 -16 8 0 15 9 15 20 0 13 5 18 15 14 10 -4 15 -20 15 -45 0 -28 -4
-39 -15 -39 -8 0 -15 7 -15 15 0 8 -7 15 -15 15 -9 0 -12 -6 -9 -15 4 -9 0
-15 -10 -15 -12 0 -16 10 -16 46 0 32 4 44 13 41 6 -2 11 -11 9 -21z m148 9
c0 -8 -7 -15 -15 -15 -11 0 -13 -8 -8 -30 4 -23 2 -30 -11 -30 -11 0 -16 9
-16 30 0 20 -5 30 -15 30 -32 0 -13 19 23 23 20 2 38 4 40 5 1 1 2 -5 2 -13z
m-465 -35 c0 -33 -2 -35 -37 -38 l-38 -3 0 41 0 41 38 -3 c35 -3 37 -5 37 -38z
m102 23 c4 -10 1 -19 -6 -21 -9 -3 -8 -9 5 -23 16 -18 16 -19 -1 -19 -10 0
-24 8 -31 18 -13 16 -13 16 -14 0 0 -10 -7 -18 -15 -18 -11 0 -15 11 -15 40 0
39 1 40 35 40 24 0 38 -5 42 -17z m53 -23 c0 -29 -4 -40 -15 -40 -11 0 -15 11
-15 40 0 29 4 40 15 40 11 0 15 -11 15 -40z"/>
</g>
</svg>
