<?xml version="1.0" standalone="no"?>
<!DOCTYPE svg PUBLIC "-//W3C//DTD SVG 20010904//EN"
 "http://www.w3.org/TR/2001/REC-SVG-20010904/DTD/svg10.dtd">
<svg version="1.0" xmlns="http://www.w3.org/2000/svg"
 width="1920.000000pt" height="1920.000000pt" viewBox="0 0 1920.000000 1920.000000"
 preserveAspectRatio="xMidYMid meet">
<metadata>
Created by potrace 1.16, written by Peter Selinger 2001-2019
</metadata>
<g transform="translate(0.000000,1920.000000) scale(0.100000,-0.100000)"
fill="#000000" stroke="none">
<path d="M0 9600 l0 -9600 9600 0 9600 0 0 9600 0 9600 -9600 0 -9600 0 0
-9600z m9171 6758 c29 -65 56 -118 61 -118 5 0 6 -4 3 -10 -3 -5 24 -76 60
-157 36 -80 65 -150 65 -154 0 -4 -15 -9 -32 -12 -108 -18 -118 -19 -118 -5 0
7 -8 32 -17 56 l-18 43 -105 -7 c-58 -3 -108 -8 -111 -10 -3 -2 -12 -29 -18
-61 l-13 -58 -74 0 c-41 0 -74 4 -74 9 0 6 9 43 21 84 11 40 18 80 15 88 -3 8
-2 13 2 10 5 -3 14 18 22 47 21 83 88 320 98 347 9 24 13 25 95 25 l86 0 52
-117z m1030 97 l55 -6 34 -82 c18 -45 45 -107 60 -137 14 -30 39 -91 56 -135
l29 -80 6 55 c30 255 42 346 45 351 1 3 33 0 71 -6 l68 -11 -3 -35 c-6 -71
-52 -426 -63 -486 l-11 -61 -29 8 c-36 11 -30 10 -88 10 -41 0 -51 4 -56 20
-4 11 -10 18 -15 15 -4 -3 -11 2 -14 11 -3 8 -2 12 4 9 12 -7 12 -3 4 20 -6
13 -9 14 -16 3 -8 -10 -9 -9 -4 4 6 21 -12 78 -26 78 -5 0 -7 4 -4 9 4 5 -10
47 -30 93 -20 45 -42 101 -49 123 l-12 40 -11 -70 c-6 -38 -16 -113 -22 -165
-18 -164 -17 -160 -48 -155 -15 2 -48 7 -74 10 -31 4 -45 10 -42 18 2 7 13 80
23 162 11 83 27 208 37 278 l18 128 25 -5 c14 -3 51 -8 82 -11z m-2197 -137
c2 -7 10 -34 18 -59 l14 -47 -115 -27 c-64 -15 -126 -29 -139 -32 -15 -4 -21
-11 -18 -22 3 -9 8 -33 12 -53 6 -36 25 -50 39 -28 4 6 10 8 14 5 5 -2 50 7
100 20 51 14 97 23 102 19 5 -3 9 -16 9 -29 0 -13 4 -35 10 -49 10 -27 9 -28
-60 -41 -19 -4 -67 -16 -107 -27 -69 -20 -71 -21 -63 -47 5 -14 11 -38 14 -53
7 -32 1 -32 175 8 57 14 105 23 106 22 1 -2 7 -21 12 -43 6 -22 14 -47 17 -56
6 -14 -6 -20 -69 -34 -41 -9 -73 -21 -70 -26 3 -5 0 -6 -7 -4 -12 5 -212 -35
-248 -49 -17 -7 -20 7 -105 374 -26 112 -39 187 -33 191 5 3 62 18 126 33 64
15 146 36 182 46 80 23 80 23 84 8z m3489 -104 c43 -14 56 -23 51 -34 -3 -8
-17 -55 -29 -105 -27 -106 -123 -436 -128 -441 -2 -2 -33 6 -70 18 -67 22 -68
23 -61 53 4 16 8 37 9 45 1 8 7 27 13 41 6 15 29 93 52 175 37 133 63 223 76
262 2 8 10 11 17 9 6 -3 38 -13 70 -23z m869 -304 c34 -16 68 -30 74 -30 14 0
21 -50 34 -270 6 -96 12 -182 14 -190 2 -8 13 8 26 35 12 28 49 106 81 174 32
68 59 127 59 132 0 5 3 9 7 9 6 0 103 -46 122 -58 3 -1 -7 -28 -22 -60 -14
-31 -53 -115 -85 -187 -87 -190 -135 -286 -141 -282 -3 1 -38 18 -77 37 l-71
35 -13 110 c-7 61 -16 164 -19 230 -6 109 -8 117 -20 90 -24 -58 -93 -211
-124 -275 l-32 -65 -62 31 -62 31 35 73 c19 40 32 80 29 89 -3 8 -3 12 1 8 11
-10 116 213 110 230 -3 8 -2 12 2 9 12 -7 45 53 38 70 -3 8 -1 12 4 9 5 -3 12
6 16 20 3 14 8 25 9 25 2 0 32 -13 67 -30z m-5702 -22 c0 -6 7 -24 15 -41 20
-43 101 -239 127 -307 12 -30 22 -56 23 -58 2 -3 61 19 154 58 41 16 75 29 76
28 2 -2 13 -25 25 -53 12 -27 24 -53 26 -56 2 -4 -35 -21 -81 -39 -53 -19 -83
-36 -79 -42 4 -7 2 -8 -5 -4 -6 4 -27 2 -47 -4 -30 -10 -33 -14 -22 -28 12
-13 11 -14 -8 -2 -17 10 -26 9 -62 -9 -23 -11 -45 -21 -51 -21 -5 0 -22 32
-38 70 -16 39 -32 67 -36 64 -3 -3 -3 3 0 14 3 14 -4 29 -21 46 -14 14 -21 26
-16 26 6 0 2 21 -9 48 -65 164 -95 238 -103 247 -5 5 16 20 53 37 33 15 58 32
54 38 -3 6 0 7 9 4 9 -3 16 -11 16 -16z m-817 -546 c24 -11 47 -24 50 -28 3
-5 -11 -33 -30 -62 -27 -39 -40 -51 -52 -46 -81 35 -99 38 -140 25 -91 -27
-127 -94 -101 -190 15 -57 81 -128 131 -141 51 -14 108 1 153 40 45 40 59 78
54 148 l-4 59 56 21 c31 12 58 22 62 22 3 0 11 -20 18 -45 17 -59 8 -150 -19
-203 -23 -45 -26 -56 -12 -47 5 3 12 1 15 -4 4 -5 -2 -8 -11 -6 -22 3 -75 -44
-66 -59 3 -6 3 -8 -2 -4 -4 4 -20 -1 -34 -11 -14 -10 -36 -22 -49 -26 -15 -4
-21 -12 -18 -21 4 -10 2 -12 -6 -8 -6 4 -52 8 -102 8 -73 1 -100 5 -136 23
-70 35 -107 74 -142 149 -45 96 -50 181 -15 257 14 31 23 58 21 61 -2 3 -2 4
1 3 3 -2 23 13 45 34 59 56 129 80 217 75 40 -2 91 -13 116 -24z m7772 -135
c143 -31 224 -130 224 -277 1 -92 -4 -97 -72 -63 -52 25 -57 31 -57 61 0 42
-24 100 -52 123 -11 11 -38 24 -59 29 -40 11 -93 4 -84 -10 3 -5 0 -12 -6 -16
-8 -4 -9 -3 -5 4 11 18 -2 15 -40 -9 -48 -29 -88 -115 -82 -177 5 -56 36 -111
50 -90 6 9 7 6 3 -8 -11 -41 77 -64 177 -48 21 4 35 10 33 14 -3 5 5 6 17 2
38 -10 11 15 -97 89 -58 39 -105 75 -105 79 0 5 5 12 11 15 6 4 8 14 5 22 -3
8 -1 11 4 8 6 -3 13 1 16 9 8 21 23 20 48 -3 42 -38 158 -111 167 -105 5 3 8
0 7 -8 -2 -7 5 -12 14 -12 10 1 16 -2 13 -6 -3 -5 15 -23 40 -41 25 -18 45
-34 45 -35 0 -2 -20 -32 -45 -68 -28 -42 -42 -72 -39 -83 4 -13 3 -14 -3 -5
-7 9 -22 -6 -56 -53 -40 -56 -50 -64 -66 -56 -10 6 -22 7 -26 3 -5 -4 -5 -2
-2 4 4 7 -5 19 -18 28 -33 22 -30 43 13 91 7 8 10 15 5 15 -5 0 -21 -14 -36
-31 -15 -17 -27 -26 -27 -20 0 6 -8 11 -17 11 -15 0 -16 2 -3 10 9 6 17 5 21
-1 4 -7 9 -4 12 5 5 13 -2 16 -41 16 -62 0 -110 14 -152 45 -27 20 -36 22 -49
12 -14 -11 -14 -10 -2 6 12 16 9 22 -12 18 -5 -1 -6 3 -3 8 3 5 -6 30 -21 56
-21 39 -26 61 -27 119 -1 81 12 118 67 198 45 66 96 103 170 123 65 17 69 17
142 2z m-9506 -1348 c67 -22 126 -37 133 -33 6 4 8 3 5 -3 -4 -6 45 -27 117
-51 177 -60 200 -70 187 -86 -6 -7 -7 -17 -3 -21 4 -5 2 -5 -5 -2 -6 4 -23
-11 -40 -38 -27 -43 -42 -53 -57 -38 -3 4 -23 12 -43 19 l-37 13 -79 -79 c-70
-72 -79 -85 -55 -81 4 0 5 -5 2 -13 -3 -8 9 -30 27 -50 l32 -37 -49 -53 c-27
-30 -51 -54 -54 -55 -3 0 -18 19 -35 43 -16 24 -33 42 -37 40 -4 -2 -10 1 -14
7 -4 8 -3 9 4 5 7 -4 12 -5 12 -3 0 13 -113 182 -120 180 -5 -2 -7 3 -5 10 7
17 -90 173 -105 169 -6 -1 -8 3 -5 9 4 6 -3 25 -15 41 -13 17 -18 28 -12 25
12 -8 34 16 30 34 -2 8 2 13 8 12 6 -1 28 16 49 38 22 21 40 39 41 39 1 0 56
-18 123 -41z m11117 -162 c62 -32 128 -128 140 -204 8 -54 -11 -119 -42 -139
-23 -15 -26 -15 -44 1 -11 10 -24 14 -32 9 -7 -4 -10 -3 -5 1 4 5 0 16 -9 26
-14 16 -14 20 1 48 20 39 8 93 -31 134 -28 31 -54 30 -89 -4 -19 -18 -19 -19
14 -96 68 -157 74 -182 61 -240 -30 -134 -206 -164 -315 -54 -22 22 -43 37
-47 35 -3 -2 -10 1 -14 7 -5 8 -3 9 6 4 8 -5 11 -3 8 6 -3 8 -11 13 -17 11 -7
-1 -10 2 -6 7 3 6 -4 30 -17 53 -17 33 -22 60 -23 115 0 66 2 74 29 102 17 17
35 31 41 31 6 0 30 -18 53 -40 22 -22 43 -40 46 -40 3 0 7 12 9 28 3 19 4 16
6 -14 0 -26 -5 -46 -14 -54 -10 -9 -15 -9 -15 -1 0 6 5 11 12 11 6 0 8 3 4 7
-11 11 -46 -38 -46 -65 0 -28 27 -82 41 -82 6 0 8 -4 5 -8 -10 -16 53 -44 84
-37 52 11 52 23 -2 135 -38 81 -50 116 -50 155 -1 67 3 104 11 103 3 -1 23 14
44 34 50 50 126 55 203 15z m-11743 -831 c38 -29 55 -62 59 -116 3 -34 4 -34
81 -53 87 -22 99 -18 124 41 12 28 16 31 34 22 16 -9 31 -45 31 -75 0 -54 -47
-120 -92 -130 -17 -4 -30 -12 -30 -18 0 -8 -3 -9 -8 -1 -7 11 -107 34 -148 34
-16 0 -29 -13 -48 -46 -14 -25 -24 -49 -21 -54 2 -4 40 -28 84 -53 44 -26 82
-51 86 -56 5 -9 -62 -121 -73 -121 -3 0 -27 14 -54 30 -52 33 -63 36 -52 18 4
-7 3 -8 -5 -4 -6 4 -9 11 -6 16 8 12 -33 33 -47 24 -6 -4 -8 -3 -5 3 8 13 -38
37 -54 28 -7 -5 -10 -4 -5 3 5 9 -244 152 -266 152 -13 0 -12 2 57 125 36 64
65 119 65 124 0 14 83 103 115 123 43 28 131 20 178 -16z m12483 -338 c41 -81
74 -153 74 -160 0 -14 -93 -62 -98 -50 -32 71 -111 207 -122 211 -13 4 -13 2
0 -14 14 -17 14 -17 -7 -4 l-23 14 23 12 c12 7 18 12 13 13 -16 0 -96 -55 -96
-66 0 -6 11 -28 25 -48 14 -20 25 -41 25 -47 0 -6 13 -34 30 -64 21 -38 26
-56 18 -61 -7 -4 -8 -3 -4 4 10 17 1 15 -44 -8 -22 -11 -41 -20 -44 -20 -3 0
-26 40 -52 90 -26 49 -52 86 -57 83 -6 -4 -8 0 -4 10 3 10 4 17 1 17 -12 0
-104 -51 -104 -58 1 -13 28 -43 32 -35 3 4 3 2 1 -5 -1 -7 17 -53 42 -102 25
-49 45 -94 45 -99 0 -5 -9 -11 -21 -14 -12 -3 -18 -10 -15 -15 3 -6 -2 -8 -13
-5 -10 3 -22 0 -25 -6 -16 -25 -36 -6 -76 74 -24 46 -47 82 -51 79 -4 -2 -11
1 -15 7 -4 8 -3 9 4 5 16 -10 15 0 -3 32 -25 47 -76 155 -73 157 2 0 26 15 53
32 28 17 85 49 127 71 43 21 75 42 70 47 -4 5 -2 5 5 1 7 -3 67 22 134 58
l123 64 14 -26 c8 -15 48 -93 88 -174z m-3454 -97 c51 -23 121 -96 145 -151
24 -55 21 -174 -7 -237 -63 -146 -246 -210 -393 -138 -32 16 -73 46 -92 66
-18 21 -35 36 -37 34 -2 -2 -4 4 -5 13 -1 9 -8 35 -17 57 -19 51 -20 87 -1
159 47 181 237 273 407 197z m-700 -344 c89 -48 124 -175 76 -267 -29 -53
-113 -110 -165 -110 -44 0 -125 28 -141 48 -7 10 -17 17 -22 17 -6 0 -10 3
-10 7 -1 4 -10 27 -20 50 -37 80 -20 162 45 224 67 65 155 76 237 31z m-1258
-262 c101 -27 190 -80 265 -161 l69 -74 46 16 c35 12 73 15 145 12 85 -3 106
-8 162 -35 89 -44 178 -127 213 -198 31 -64 56 -139 56 -171 0 -17 8 -23 33
-28 18 -3 49 -14 69 -25 l36 -18 12 45 c31 126 127 241 235 282 205 78 436 -9
526 -198 28 -58 32 -76 33 -161 0 -53 -3 -111 -8 -130 -8 -33 -8 -34 23 -29
l31 5 0 -183 0 -183 -93 1 c-52 1 -99 -2 -105 -6 -7 -4 -12 -31 -12 -64 0 -89
-27 -248 -61 -356 -126 -408 -451 -752 -849 -901 -158 -59 -270 -78 -465 -79
-188 -1 -269 10 -410 56 -354 114 -656 370 -817 693 -85 169 -145 377 -154
535 -9 141 1 130 -109 130 l-95 0 0 175 0 175 49 0 48 0 -1 118 c-1 106 2 122
25 172 39 81 90 134 167 172 64 32 72 33 183 33 l117 0 12 35 c48 138 147 247
283 310 107 51 232 63 341 35z m-4337 -394 l18 -75 88 -22 c48 -12 130 -30
182 -40 93 -18 124 -34 67 -34 -16 0 -51 -6 -78 -14 -27 -7 -97 -24 -156 -37
-103 -22 -108 -24 -118 -53 -20 -62 -80 -311 -80 -333 0 -13 -4 -23 -10 -23
-5 0 -10 19 -10 41 0 56 -39 319 -51 341 -5 10 -13 17 -17 16 -15 -4 -115 14
-211 37 -55 14 -114 25 -131 25 -16 0 -30 5 -30 10 0 6 11 10 24 10 14 0 85
14 158 31 73 18 150 35 171 39 21 4 39 9 41 11 2 2 18 78 35 169 17 91 34 176
38 190 4 18 12 -11 28 -95 13 -66 31 -153 42 -194z m-3157 253 c72 -33 117
-76 147 -144 43 -95 31 -239 -28 -320 -16 -23 -27 -46 -23 -53 4 -7 4 -9 -1
-5 -4 4 -21 -4 -38 -18 -77 -64 -168 -85 -266 -60 -61 16 -125 49 -150 80 -11
13 -17 14 -30 4 -13 -10 -14 -10 -4 1 8 10 5 22 -18 55 -84 119 -48 313 78
425 43 39 67 52 107 60 72 13 162 3 226 -25z m13295 -56 c84 -269 99 -362 69
-437 -37 -92 -144 -120 -235 -62 l-45 28 -35 -31 c-19 -17 -45 -39 -59 -49
-23 -16 -23 -19 -12 -49 7 -18 8 -34 3 -36 -4 -1 -25 -12 -46 -22 -21 -11 -40
-19 -41 -17 -1 1 -18 36 -37 77 -25 55 -32 79 -24 90 5 8 38 40 73 70 44 38
59 57 51 63 -8 6 -7 7 4 4 35 -11 44 8 31 69 -6 31 -13 59 -16 61 -4 4 -154
-37 -188 -51 -12 -6 -18 0 -23 26 -4 18 -15 50 -25 71 l-19 38 30 6 c16 3 26
10 22 16 -3 6 -1 7 6 3 10 -6 357 95 386 112 6 4 20 8 33 10 12 1 32 7 45 12
31 13 47 12 52 -2z m-10469 -856 c21 -105 9 -94 153 -127 65 -14 98 -33 73
-42 -7 -3 -19 -11 -26 -19 -8 -8 -47 -21 -88 -30 -40 -9 -78 -18 -85 -20 -6
-1 -14 -18 -18 -36 -4 -18 -13 -53 -20 -78 -8 -25 -24 -92 -37 -149 l-22 -103
-12 63 c-6 35 -19 111 -29 169 -10 58 -23 111 -30 118 -11 13 -302 72 -353 72
-48 0 -14 12 105 36 142 28 256 54 259 57 4 4 57 272 61 307 8 70 16 63 33
-30 9 -52 26 -137 36 -188z m-3452 -358 c21 -38 117 -154 135 -164 23 -12 115
14 214 60 55 25 167 70 175 70 5 0 -8 -89 -19 -131 -8 -33 -16 -39 -77 -66
-37 -17 -90 -38 -119 -48 -29 -10 -50 -22 -47 -26 2 -4 -6 -5 -18 -2 l-23 5
23 -21 c29 -25 101 -48 182 -57 68 -7 67 -6 46 -94 -10 -45 -16 -55 -32 -53
-37 5 -460 53 -511 58 l-51 6 8 32 c5 18 10 50 12 72 l4 40 70 -3 c47 -2 64 0
54 7 -11 7 -6 10 17 9 18 -1 34 -7 37 -15 3 -7 15 -13 26 -13 13 0 18 4 15 11
-4 6 -14 8 -22 5 -8 -3 -11 -1 -8 4 3 5 -9 19 -27 31 -18 12 -53 46 -78 75
-25 28 -47 51 -50 49 -17 -10 4 151 22 173 14 16 29 11 42 -14z m14239 -69 c4
-25 9 -56 13 -70 6 -23 1 -28 -55 -52 -33 -14 -58 -31 -54 -36 3 -6 1 -7 -5
-3 -14 9 -103 -35 -95 -47 4 -6 1 -7 -6 -3 -13 8 -71 -11 -71 -24 0 -3 -6 -7
-13 -7 -18 0 -114 -46 -101 -49 5 -1 34 -7 64 -13 61 -13 321 -68 359 -77 23
-5 23 -7 17 -72 -4 -36 -8 -68 -10 -70 -2 -1 -75 13 -162 32 -317 70 -394 86
-414 86 -18 0 -20 6 -20 60 0 36 -4 60 -11 60 -6 0 -7 5 -2 13 4 6 6 19 5 28
-3 17 42 43 277 160 74 36 130 68 125 71 -5 3 -3 3 3 2 7 -2 41 10 75 26 35
16 66 29 69 29 4 1 9 -19 12 -44z m-8354 -252 c0 -87 -3 -173 -6 -190 l-5 -33
-484 0 -484 0 0 190 0 190 490 0 489 0 0 -157z m813 -927 l-3 -315 388 -3 388
-3 66 -32 c84 -42 144 -99 177 -171 24 -50 27 -69 27 -162 0 -98 -2 -109 -30
-158 -32 -59 -118 -143 -174 -171 -86 -43 -66 -42 -1665 -42 l-1530 1 -34 32
c-89 86 -147 185 -195 333 -21 68 -22 81 -22 537 l0 468 1305 0 1305 0 -3
-314z m7462 -95 l160 -6 -3 -70 c-1 -38 -3 -70 -4 -71 -3 -1 -356 14 -474 21
l-113 7 0 69 0 69 138 -6 c75 -3 209 -9 296 -13z m-4442 -576 l-4 -35 -735 0
-735 0 6 23 c3 12 6 28 6 35 0 9 153 12 733 12 l733 0 -4 -35z m-9230 -124
c29 -26 33 -35 33 -83 0 -39 -6 -61 -22 -84 -12 -17 -19 -35 -15 -39 4 -5 1
-5 -6 -1 -8 5 -21 1 -30 -7 -9 -8 -35 -24 -58 -35 -57 -29 -64 -40 -54 -90 4
-23 10 -45 12 -48 3 -2 47 2 99 11 52 8 99 15 105 15 9 0 36 -129 29 -138 -3
-3 -155 -32 -477 -91 l-97 -18 -5 26 c-24 115 -39 230 -40 307 -1 82 1 94 26
131 31 47 83 75 143 75 49 1 105 -27 120 -60 11 -25 20 -28 31 -10 5 7 3 8 -6
3 -9 -5 -11 -4 -6 4 4 6 12 9 17 6 15 -10 97 32 114 59 11 17 15 36 12 55 -10
51 25 57 75 12z m13524 -193 c129 -47 187 -131 188 -268 0 -77 -27 -164 -60
-191 -17 -14 -19 -33 -1 -23 7 4 9 3 4 -2 -5 -5 -12 -9 -15 -9 -4 0 -32 -12
-62 -27 -30 -15 -77 -30 -103 -34 l-48 -6 3 68 3 68 38 8 c52 11 87 36 103 75
31 72 4 169 -49 180 -17 4 -24 9 -17 13 8 5 7 9 -5 14 -9 3 -21 4 -25 1 -5 -3
-11 -1 -15 5 -3 5 -32 10 -63 10 -101 0 -171 -58 -180 -148 -6 -69 16 -112 86
-161 30 -21 32 -25 19 -45 -7 -11 -19 -40 -27 -63 -7 -24 -16 -43 -20 -43 -14
0 -128 89 -134 105 -3 9 -9 14 -14 11 -4 -2 -8 3 -9 12 -1 9 -8 35 -17 57 -19
50 -20 147 -1 199 7 21 12 43 11 50 -2 6 -1 7 2 3 2 -4 17 12 32 36 76 120
224 161 376 105z m-13237 -1004 c23 -29 28 -92 11 -124 -9 -16 -3 -26 34 -61
79 -72 118 -234 72 -301 -10 -15 -14 -33 -10 -39 4 -7 3 -9 -3 -6 -5 3 -28 -3
-50 -14 -39 -19 -146 -32 -136 -16 2 4 0 7 -4 7 -5 0 -20 11 -35 25 -22 20
-28 22 -38 10 -6 -8 -9 -19 -6 -24 4 -5 1 -13 -5 -17 -8 -5 -9 -3 -4 7 8 12 6
12 -8 0 -18 -14 -13 -36 6 -25 7 4 9 3 4 -1 -11 -12 -47 -14 -40 -2 4 7 -1 7
-13 3 -40 -17 -80 -22 -108 -15 -16 5 -34 5 -39 2 -6 -3 -7 -1 -3 5 4 7 3 12
-2 12 -17 0 -65 54 -83 95 -57 124 13 245 142 245 37 0 48 -6 86 -45 42 -44
43 -45 52 -23 5 13 16 41 25 63 16 37 16 40 0 52 -9 7 -36 15 -60 19 -25 3
-47 10 -50 15 -3 5 4 29 15 54 l20 45 43 -6 c24 -4 53 -11 66 -15 31 -12 41
-11 22 1 -13 9 -13 10 0 10 8 0 23 20 33 45 22 52 37 56 66 19z m12661 -197
c41 -14 153 -58 249 -97 96 -38 180 -70 188 -70 18 0 18 -1 -33 -135 -82 -215
-102 -260 -116 -256 -7 2 -24 4 -37 4 -17 -1 -20 1 -11 7 10 6 7 10 -13 15
-15 4 -27 11 -27 16 0 5 20 62 45 126 25 64 42 119 38 123 -4 4 -21 12 -38 18
-16 5 -37 13 -46 17 -13 5 -22 -9 -43 -74 -15 -44 -33 -96 -41 -116 -15 -35
-16 -35 -45 -20 -16 8 -36 15 -44 15 -28 0 -26 19 14 126 22 59 40 110 40 114
0 4 -18 12 -41 19 -23 7 -47 15 -53 17 -8 3 -27 -31 -51 -93 -21 -54 -44 -112
-52 -130 l-13 -32 -52 21 c-29 12 -54 23 -56 24 -2 1 32 92 74 203 43 111 80
197 83 193 3 -5 40 -21 81 -35z m-12161 -942 c13 -19 26 -33 30 -31 17 11 7
-35 -12 -56 -51 -54 -61 -69 -50 -76 6 -4 25 -36 43 -72 58 -116 50 -110 124
-90 l63 18 26 -60 c15 -33 27 -65 27 -71 0 -8 -86 -29 -227 -56 -126 -25 -229
-48 -231 -52 -2 -4 -10 -5 -17 -3 -8 3 -37 1 -66 -5 -59 -13 -55 -16 -108 83
l-34 62 24 29 c13 16 44 52 69 80 100 115 140 168 133 178 -3 5 -1 7 5 4 5 -4
29 17 53 45 69 86 101 117 113 112 6 -2 22 -20 35 -39z m11773 -80 c3 -3 -1
-33 -10 -66 -14 -56 -17 -60 -39 -56 -72 14 -165 -53 -179 -129 -6 -33 -4 -40
20 -61 15 -13 34 -23 42 -23 8 0 59 45 113 99 105 107 132 120 207 107 47 -9
111 -73 120 -121 17 -91 -24 -216 -87 -270 -16 -12 -26 -25 -24 -27 5 -4 -5
-6 -102 -14 l-73 -6 0 28 c0 16 3 46 6 67 7 37 7 37 53 37 36 0 52 6 74 26 27
25 47 62 47 88 0 15 -37 56 -51 56 -6 0 -57 -45 -114 -100 -58 -55 -111 -100
-120 -100 -8 0 -15 -4 -15 -9 0 -5 -8 -8 -17 -6 -60 12 -93 13 -87 3 4 -7 2
-8 -5 -4 -6 4 -9 11 -6 16 3 5 -4 11 -14 15 -11 3 -31 19 -44 35 -14 16 -27
27 -29 25 -4 -4 -5 2 -14 80 -4 38 0 62 15 98 12 27 18 54 14 60 -3 7 -3 9 2
5 4 -4 21 11 38 34 34 48 79 88 116 105 26 11 153 18 163 8z m-5586 -966 c33
-17 60 -41 82 -73 46 -69 44 -74 -40 -78 -64 -3 -75 0 -95 20 -16 16 -34 22
-66 22 -67 0 -107 -52 -107 -137 1 -73 51 -123 124 -123 44 0 68 9 59 23 -3 6
-1 7 6 3 14 -9 41 11 41 30 0 11 -20 14 -90 14 l-90 0 0 55 0 55 53 0 c28 1
104 2 168 3 l117 2 6 -65 c3 -36 6 -106 6 -157 l0 -91 -65 -4 c-60 -3 -66 -1
-71 18 -3 11 -4 24 -3 30 4 22 -2 23 -23 2 -13 -13 -22 -27 -20 -31 1 -5 -2
-6 -7 -3 -5 3 -26 -1 -47 -10 -76 -32 -205 -3 -261 58 -48 53 -68 108 -68 193
1 92 23 149 79 204 75 72 214 90 312 40z m-1604 -6 c54 -25 88 -71 88 -118 0
-34 -32 -93 -56 -102 -12 -4 -11 -8 8 -17 56 -27 72 -129 31 -185 -48 -63 -58
-66 -264 -71 l-189 -5 0 260 0 260 168 0 c150 -1 172 -3 214 -22z m628 -5 c73
-36 92 -69 88 -152 -2 -35 -6 -62 -9 -60 -12 7 -31 -25 -23 -37 4 -7 3 -9 -4
-5 -12 7 -62 -13 -62 -26 0 -4 3 -8 8 -8 4 0 20 -20 35 -45 16 -25 41 -50 55
-57 20 -10 27 -21 27 -43 1 -17 4 -36 8 -43 6 -9 -10 -12 -72 -12 -43 0 -86
-2 -93 -5 -9 -4 -19 4 -26 17 -20 41 -67 122 -85 149 -13 20 -24 25 -42 21
-24 -4 -25 -6 -25 -96 l0 -91 -80 3 -80 4 0 257 0 257 163 -1 c155 0 164 -1
217 -27z m1470 -63 l0 -95 83 0 82 0 0 92 0 93 83 3 83 3 -1 -261 -1 -260 -85
0 -84 0 0 100 0 100 -80 0 -80 0 0 -100 0 -100 -80 0 -80 0 0 260 0 260 80 0
80 0 0 -95z m918 25 l2 -70 -75 0 -75 0 0 -190 0 -190 -82 0 -83 0 2 127 c1
71 -2 147 -6 171 -6 29 -5 42 3 43 6 1 0 5 -14 9 -24 8 -24 8 -2 9 12 1 22 6
22 11 0 6 -3 9 -7 9 -5 -1 -38 -1 -75 0 l-68 1 0 63 c0 35 3 67 7 70 3 4 106
7 228 7 l221 0 2 -70z m-1956 -195 l-3 -255 -79 0 -80 0 0 255 0 255 83 0 82
0 -3 -255z"/>
<path d="M9025 16259 c-10 -41 -21 -81 -25 -89 -4 -8 -10 -27 -14 -42 -6 -28
-6 -28 46 -28 90 0 114 13 83 43 -8 8 -12 16 -10 19 2 2 -11 41 -29 87 l-33
84 -18 -74z"/>
<path d="M4030 13743 c0 -11 48 -72 52 -67 3 3 5 -3 5 -13 -1 -10 3 -17 10
-16 7 2 10 -3 7 -10 -2 -7 8 -30 24 -50 l30 -37 46 50 c25 27 46 53 46 58 0 5
-49 27 -110 49 -60 22 -110 38 -110 36z"/>
<path d="M3306 12726 c-17 -18 -42 -54 -55 -79 -21 -39 -23 -48 -11 -62 7 -9
19 -14 27 -11 8 3 12 2 9 -3 -7 -11 40 -32 58 -25 8 3 17 1 21 -5 4 -7 -1 -8
-12 -4 -15 5 -16 4 -5 -8 11 -12 16 -10 32 11 11 14 29 43 40 66 57 114 -23
207 -104 120z"/>
<path d="M9614 10498 c24 -380 217 -733 530 -970 105 -80 316 -182 442 -213
305 -78 620 -45 909 95 266 128 521 403 625 673 55 143 100 354 100 470 l0 47
-1307 0 -1306 0 7 -102z"/>
<path d="M2882 11572 c-18 -2 -30 -6 -28 -10 2 -4 -6 -8 -19 -8 -49 -3 -95
-77 -95 -154 0 -57 15 -93 57 -132 37 -35 73 -48 135 -48 61 0 108 26 143 78
34 51 35 144 2 193 -38 57 -118 90 -195 81z"/>
<path d="M16223 11453 c-29 -9 -53 -20 -53 -25 0 -5 -5 -6 -11 -2 -8 5 -9 -6
-4 -37 9 -57 34 -111 48 -102 6 3 7 1 3 -5 -9 -15 33 -52 59 -52 52 0 68 63
43 170 -10 44 -15 51 -32 46 -21 -5 -21 -5 -2 9 24 18 16 18 -51 -2z"/>
<path d="M8338 9465 c-6 -11 -17 -57 -73 -310 -61 -275 -53 -254 -94 -261
-302 -57 -552 -111 -531 -117 14 -3 90 -18 170 -32 80 -14 200 -37 266 -50 67
-14 124 -25 128 -25 3 0 6 -8 6 -19 0 -10 11 -63 24 -117 13 -54 41 -170 62
-257 20 -87 41 -154 45 -150 4 4 28 105 54 223 25 118 53 238 61 265 l15 50
167 34 c92 19 220 43 284 55 64 12 119 23 122 26 3 3 -124 32 -282 64 -158 32
-290 61 -294 65 -5 4 -33 128 -63 276 -64 311 -60 292 -67 280z"/>
<path d="M2532 8137 c-17 -18 -22 -36 -22 -73 0 -44 13 -121 22 -129 1 -1 33
2 71 7 77 12 76 9 51 119 -22 96 -73 128 -122 76z"/>
<path d="M3135 6849 c-40 -95 -41 -92 5 -118 41 -24 110 28 110 82 0 24 -33
88 -57 110 -20 17 -21 15 -58 -74z"/>
<path d="M3594 5784 c3 -8 2 -13 -3 -10 -5 3 -28 -15 -51 -40 -36 -39 -40 -47
-28 -62 11 -15 11 -15 -3 -5 -13 11 -21 7 -48 -21 -32 -33 -32 -33 -7 -29 14
3 24 9 21 13 -3 5 3 6 12 4 24 -6 178 31 178 42 -1 19 -58 124 -67 124 -6 0
-7 -7 -4 -16z"/>
</g>
</svg>
